<mxfile host="app.diagrams.net" modified="2023-11-06T18:45:39.232Z" agent="Mozilla/5.0 (Macintosh; Intel Mac OS X 10_15_7) AppleWebKit/537.36 (KHTML, like Gecko) Chrome/118.0.0.0 Safari/537.36" etag="6cP56C96Zc2EWJk3kReB" version="22.0.8" type="github">
  <diagram name="Page-1" id="8b6d7hMV0Gz6170TD7ij">
    <mxGraphModel dx="2407" dy="1296" grid="1" gridSize="10" guides="1" tooltips="1" connect="1" arrows="1" fold="1" page="1" pageScale="1" pageWidth="1654" pageHeight="1169" math="0" shadow="0">
      <root>
        <mxCell id="0" />
        <mxCell id="1" parent="0" />
        <mxCell id="arhm7RF5yQN0ootWQE9a-90" value="" style="rounded=1;arcSize=10;dashed=1;fillColor=none;gradientColor=none;dashPattern=1 1;strokeWidth=2;" vertex="1" parent="1">
          <mxGeometry x="1000" y="1705.65" width="150" height="84.35" as="geometry" />
        </mxCell>
        <mxCell id="K1gADRJT3q73bwG_7fY1-18" value="" style="rounded=1;arcSize=10;dashed=1;fillColor=none;gradientColor=none;dashPattern=1 1;strokeWidth=2;" parent="1" vertex="1">
          <mxGeometry x="480" y="1200" width="1120" height="360" as="geometry" />
        </mxCell>
        <mxCell id="arhm7RF5yQN0ootWQE9a-6" value="" style="rounded=1;arcSize=10;dashed=1;fillColor=none;gradientColor=none;dashPattern=1 1;strokeWidth=2;" vertex="1" parent="1">
          <mxGeometry x="580" y="1240" width="240" height="280" as="geometry" />
        </mxCell>
        <mxCell id="zMahYsYN_JZd5JUXkMAy-1" value="Region" style="sketch=0;outlineConnect=0;gradientColor=none;html=1;whiteSpace=wrap;fontSize=12;fontStyle=0;shape=mxgraph.aws4.group;grIcon=mxgraph.aws4.group_region;strokeColor=#888991;fillColor=none;verticalAlign=top;align=left;spacingLeft=30;fontColor=#879196;dashed=1;" parent="1" vertex="1">
          <mxGeometry x="320" y="198" width="1200" height="800" as="geometry" />
        </mxCell>
        <mxCell id="zMahYsYN_JZd5JUXkMAy-6" value="VPC" style="points=[[0,0],[0.25,0],[0.5,0],[0.75,0],[1,0],[1,0.25],[1,0.5],[1,0.75],[1,1],[0.75,1],[0.5,1],[0.25,1],[0,1],[0,0.75],[0,0.5],[0,0.25]];outlineConnect=0;gradientColor=none;html=1;whiteSpace=wrap;fontSize=12;fontStyle=0;container=1;pointerEvents=0;collapsible=0;recursiveResize=0;shape=mxgraph.aws4.group;grIcon=mxgraph.aws4.group_vpc;strokeColor=#248814;fillColor=none;verticalAlign=top;align=left;spacingLeft=30;fontColor=#AAB7B8;dashed=0;" parent="1" vertex="1">
          <mxGeometry x="400" y="278" width="1000" height="640" as="geometry" />
        </mxCell>
        <mxCell id="zMahYsYN_JZd5JUXkMAy-7" value="Availability Zone" style="fillColor=none;strokeColor=#147EBA;dashed=1;verticalAlign=top;fontStyle=0;fontColor=#147EBA;whiteSpace=wrap;html=1;" parent="zMahYsYN_JZd5JUXkMAy-6" vertex="1">
          <mxGeometry x="80" y="40" width="840" height="200" as="geometry" />
        </mxCell>
        <mxCell id="zMahYsYN_JZd5JUXkMAy-8" value="Availability Zone" style="fillColor=none;strokeColor=#147EBA;dashed=1;verticalAlign=top;fontStyle=0;fontColor=#147EBA;whiteSpace=wrap;html=1;" parent="zMahYsYN_JZd5JUXkMAy-6" vertex="1">
          <mxGeometry x="80" y="400" width="840" height="200" as="geometry" />
        </mxCell>
        <mxCell id="zMahYsYN_JZd5JUXkMAy-39" value="Internet&lt;br&gt;Gateway" style="outlineConnect=0;dashed=0;verticalLabelPosition=bottom;verticalAlign=top;align=center;html=1;shape=mxgraph.aws3.internet_gateway;fillColor=#F58534;gradientColor=none;" parent="zMahYsYN_JZd5JUXkMAy-6" vertex="1">
          <mxGeometry x="-36" y="269" width="69" height="72" as="geometry" />
        </mxCell>
        <mxCell id="zMahYsYN_JZd5JUXkMAy-28" value="AWS Cloud" style="points=[[0,0],[0.25,0],[0.5,0],[0.75,0],[1,0],[1,0.25],[1,0.5],[1,0.75],[1,1],[0.75,1],[0.5,1],[0.25,1],[0,1],[0,0.75],[0,0.5],[0,0.25]];outlineConnect=0;gradientColor=none;html=1;whiteSpace=wrap;fontSize=12;fontStyle=0;container=1;pointerEvents=0;collapsible=0;recursiveResize=0;shape=mxgraph.aws4.group;grIcon=mxgraph.aws4.group_aws_cloud;strokeColor=#232F3E;fillColor=none;verticalAlign=top;align=left;spacingLeft=30;fontColor=#232F3E;dashed=0;" parent="1" vertex="1">
          <mxGeometry x="200" y="118" width="1400" height="960" as="geometry" />
        </mxCell>
        <mxCell id="zMahYsYN_JZd5JUXkMAy-44" value="Private subnet" style="points=[[0,0],[0.25,0],[0.5,0],[0.75,0],[1,0],[1,0.25],[1,0.5],[1,0.75],[1,1],[0.75,1],[0.5,1],[0.25,1],[0,1],[0,0.75],[0,0.5],[0,0.25]];outlineConnect=0;gradientColor=none;html=1;whiteSpace=wrap;fontSize=12;fontStyle=0;container=1;pointerEvents=0;collapsible=0;recursiveResize=0;shape=mxgraph.aws4.group;grIcon=mxgraph.aws4.group_security_group;grStroke=0;strokeColor=#147EBA;fillColor=#E6F2F8;verticalAlign=top;align=left;spacingLeft=30;fontColor=#147EBA;dashed=0;" parent="zMahYsYN_JZd5JUXkMAy-28" vertex="1">
          <mxGeometry x="580" y="230" width="240" height="150" as="geometry" />
        </mxCell>
        <mxCell id="zMahYsYN_JZd5JUXkMAy-93" style="edgeStyle=orthogonalEdgeStyle;rounded=0;orthogonalLoop=1;jettySize=auto;html=1;" parent="zMahYsYN_JZd5JUXkMAy-44" target="zMahYsYN_JZd5JUXkMAy-54" edge="1">
          <mxGeometry relative="1" as="geometry">
            <mxPoint x="80" y="88.5" as="sourcePoint" />
          </mxGeometry>
        </mxCell>
        <mxCell id="zMahYsYN_JZd5JUXkMAy-94" style="edgeStyle=orthogonalEdgeStyle;rounded=0;orthogonalLoop=1;jettySize=auto;html=1;" parent="zMahYsYN_JZd5JUXkMAy-44" target="zMahYsYN_JZd5JUXkMAy-79" edge="1">
          <mxGeometry relative="1" as="geometry">
            <Array as="points">
              <mxPoint x="110" y="37" />
            </Array>
            <mxPoint x="110" y="57" as="sourcePoint" />
          </mxGeometry>
        </mxCell>
        <mxCell id="zMahYsYN_JZd5JUXkMAy-54" value="Route table" style="sketch=0;outlineConnect=0;fontColor=#232F3E;gradientColor=none;strokeColor=#232F3E;fillColor=#ffffff;dashed=0;verticalLabelPosition=bottom;verticalAlign=top;align=center;html=1;fontSize=12;fontStyle=0;aspect=fixed;shape=mxgraph.aws4.resourceIcon;resIcon=mxgraph.aws4.route_table;" parent="zMahYsYN_JZd5JUXkMAy-44" vertex="1">
          <mxGeometry x="-30" y="50" width="51" height="51" as="geometry" />
        </mxCell>
        <mxCell id="zMahYsYN_JZd5JUXkMAy-79" value="EBS" style="outlineConnect=0;dashed=0;verticalLabelPosition=bottom;verticalAlign=top;align=center;html=1;shape=mxgraph.aws3.volume;fillColor=#E05243;gradientColor=none;" parent="zMahYsYN_JZd5JUXkMAy-44" vertex="1">
          <mxGeometry x="130" y="33" width="30" height="30" as="geometry" />
        </mxCell>
        <mxCell id="zMahYsYN_JZd5JUXkMAy-121" value="NACL" style="sketch=0;outlineConnect=0;fontColor=#232F3E;gradientColor=none;fillColor=#4D27AA;strokeColor=none;dashed=0;verticalLabelPosition=bottom;verticalAlign=top;align=center;html=1;fontSize=12;fontStyle=0;aspect=fixed;pointerEvents=1;shape=mxgraph.aws4.network_access_control_list;" parent="zMahYsYN_JZd5JUXkMAy-44" vertex="1">
          <mxGeometry x="179" y="-21" width="38" height="38" as="geometry" />
        </mxCell>
        <mxCell id="zMahYsYN_JZd5JUXkMAy-45" value="Private subnet" style="points=[[0,0],[0.25,0],[0.5,0],[0.75,0],[1,0],[1,0.25],[1,0.5],[1,0.75],[1,1],[0.75,1],[0.5,1],[0.25,1],[0,1],[0,0.75],[0,0.5],[0,0.25]];outlineConnect=0;gradientColor=none;html=1;whiteSpace=wrap;fontSize=12;fontStyle=0;container=1;pointerEvents=0;collapsible=0;recursiveResize=0;shape=mxgraph.aws4.group;grIcon=mxgraph.aws4.group_security_group;grStroke=0;strokeColor=#147EBA;fillColor=#E6F2F8;verticalAlign=top;align=left;spacingLeft=30;fontColor=#147EBA;dashed=0;" parent="zMahYsYN_JZd5JUXkMAy-28" vertex="1">
          <mxGeometry x="860" y="230" width="240" height="150" as="geometry" />
        </mxCell>
        <mxCell id="zMahYsYN_JZd5JUXkMAy-85" value="" style="image;sketch=0;aspect=fixed;html=1;points=[];align=center;fontSize=12;image=img/lib/mscae/Azure_Database_for_PostgreSQL_servers.svg;" parent="zMahYsYN_JZd5JUXkMAy-45" vertex="1">
          <mxGeometry x="56" y="39.84" width="58" height="76.32" as="geometry" />
        </mxCell>
        <mxCell id="zMahYsYN_JZd5JUXkMAy-88" value="PostgreSQL DB&lt;br&gt;Read Replica" style="text;strokeColor=none;align=center;fillColor=none;html=1;verticalAlign=middle;whiteSpace=wrap;rounded=0;" parent="zMahYsYN_JZd5JUXkMAy-45" vertex="1">
          <mxGeometry x="44" y="117.16" width="94" height="30" as="geometry" />
        </mxCell>
        <mxCell id="zMahYsYN_JZd5JUXkMAy-111" value="EFS &lt;br&gt;Mount&lt;br&gt;Target" style="outlineConnect=0;dashed=0;verticalLabelPosition=bottom;verticalAlign=top;align=center;html=1;shape=mxgraph.aws3.efs_share;fillColor=#E05243;gradientColor=none;" parent="zMahYsYN_JZd5JUXkMAy-45" vertex="1">
          <mxGeometry x="165" y="45" width="40" height="42.84" as="geometry" />
        </mxCell>
        <mxCell id="zMahYsYN_JZd5JUXkMAy-119" value="NACL" style="sketch=0;outlineConnect=0;fontColor=#232F3E;gradientColor=none;fillColor=#4D27AA;strokeColor=none;dashed=0;verticalLabelPosition=bottom;verticalAlign=top;align=center;html=1;fontSize=12;fontStyle=0;aspect=fixed;pointerEvents=1;shape=mxgraph.aws4.network_access_control_list;" parent="zMahYsYN_JZd5JUXkMAy-45" vertex="1">
          <mxGeometry x="201" y="-21" width="38" height="38" as="geometry" />
        </mxCell>
        <mxCell id="zMahYsYN_JZd5JUXkMAy-47" value="Private subnet" style="points=[[0,0],[0.25,0],[0.5,0],[0.75,0],[1,0],[1,0.25],[1,0.5],[1,0.75],[1,1],[0.75,1],[0.5,1],[0.25,1],[0,1],[0,0.75],[0,0.5],[0,0.25]];outlineConnect=0;gradientColor=none;html=1;whiteSpace=wrap;fontSize=12;fontStyle=0;container=1;pointerEvents=0;collapsible=0;recursiveResize=0;shape=mxgraph.aws4.group;grIcon=mxgraph.aws4.group_security_group;grStroke=0;strokeColor=#147EBA;fillColor=#E6F2F8;verticalAlign=top;align=left;spacingLeft=30;fontColor=#147EBA;dashed=0;" parent="zMahYsYN_JZd5JUXkMAy-28" vertex="1">
          <mxGeometry x="580" y="590" width="240" height="150" as="geometry" />
        </mxCell>
        <mxCell id="zMahYsYN_JZd5JUXkMAy-63" value="Route table" style="sketch=0;outlineConnect=0;fontColor=#232F3E;gradientColor=none;strokeColor=#232F3E;fillColor=#ffffff;dashed=0;verticalLabelPosition=bottom;verticalAlign=top;align=center;html=1;fontSize=12;fontStyle=0;aspect=fixed;shape=mxgraph.aws4.resourceIcon;resIcon=mxgraph.aws4.route_table;" parent="zMahYsYN_JZd5JUXkMAy-47" vertex="1">
          <mxGeometry x="-20" y="50" width="48" height="48" as="geometry" />
        </mxCell>
        <mxCell id="zMahYsYN_JZd5JUXkMAy-95" style="edgeStyle=orthogonalEdgeStyle;rounded=0;orthogonalLoop=1;jettySize=auto;html=1;" parent="zMahYsYN_JZd5JUXkMAy-47" target="zMahYsYN_JZd5JUXkMAy-63" edge="1">
          <mxGeometry relative="1" as="geometry">
            <mxPoint x="90" y="75" as="sourcePoint" />
          </mxGeometry>
        </mxCell>
        <mxCell id="zMahYsYN_JZd5JUXkMAy-96" style="edgeStyle=orthogonalEdgeStyle;rounded=0;orthogonalLoop=1;jettySize=auto;html=1;" parent="zMahYsYN_JZd5JUXkMAy-47" target="zMahYsYN_JZd5JUXkMAy-80" edge="1">
          <mxGeometry relative="1" as="geometry">
            <Array as="points">
              <mxPoint x="120" y="24" />
            </Array>
            <mxPoint x="120" y="43.5" as="sourcePoint" />
          </mxGeometry>
        </mxCell>
        <mxCell id="zMahYsYN_JZd5JUXkMAy-80" value="EBS" style="outlineConnect=0;dashed=0;verticalLabelPosition=bottom;verticalAlign=top;align=center;html=1;shape=mxgraph.aws3.volume;fillColor=#E05243;gradientColor=none;" parent="zMahYsYN_JZd5JUXkMAy-47" vertex="1">
          <mxGeometry x="132" y="17" width="30" height="30" as="geometry" />
        </mxCell>
        <mxCell id="zMahYsYN_JZd5JUXkMAy-118" value="NACL" style="sketch=0;outlineConnect=0;fontColor=#232F3E;gradientColor=none;fillColor=#4D27AA;strokeColor=none;dashed=0;verticalLabelPosition=bottom;verticalAlign=top;align=center;html=1;fontSize=12;fontStyle=0;aspect=fixed;pointerEvents=1;shape=mxgraph.aws4.network_access_control_list;" parent="zMahYsYN_JZd5JUXkMAy-47" vertex="1">
          <mxGeometry x="140" y="125.5" width="38" height="38" as="geometry" />
        </mxCell>
        <mxCell id="Ch-lbvPgT-3TGhZs1tBC-5" value="Worker-node" style="sketch=0;html=1;dashed=0;whitespace=wrap;fillColor=#2875E2;strokeColor=#ffffff;points=[[0.005,0.63,0],[0.1,0.2,0],[0.9,0.2,0],[0.5,0,0],[0.995,0.63,0],[0.72,0.99,0],[0.5,1,0],[0.28,0.99,0]];verticalLabelPosition=bottom;align=center;verticalAlign=top;shape=mxgraph.kubernetes.icon;prIcon=node" parent="zMahYsYN_JZd5JUXkMAy-47" vertex="1">
          <mxGeometry x="70" y="33" width="70" height="70" as="geometry" />
        </mxCell>
        <mxCell id="zMahYsYN_JZd5JUXkMAy-43" value="Public subnet" style="points=[[0,0],[0.25,0],[0.5,0],[0.75,0],[1,0],[1,0.25],[1,0.5],[1,0.75],[1,1],[0.75,1],[0.5,1],[0.25,1],[0,1],[0,0.75],[0,0.5],[0,0.25]];outlineConnect=0;gradientColor=none;html=1;whiteSpace=wrap;fontSize=12;fontStyle=0;container=1;pointerEvents=0;collapsible=0;recursiveResize=0;shape=mxgraph.aws4.group;grIcon=mxgraph.aws4.group_security_group;grStroke=0;strokeColor=#248814;fillColor=#E9F3E6;verticalAlign=top;align=left;spacingLeft=30;fontColor=#248814;dashed=0;" parent="zMahYsYN_JZd5JUXkMAy-28" vertex="1">
          <mxGeometry x="300" y="230" width="240" height="151" as="geometry" />
        </mxCell>
        <mxCell id="zMahYsYN_JZd5JUXkMAy-52" value="NAT Gateway&lt;br&gt;" style="sketch=0;outlineConnect=0;fontColor=#232F3E;gradientColor=none;fillColor=#4D27AA;strokeColor=none;dashed=0;verticalLabelPosition=bottom;verticalAlign=top;align=center;html=1;fontSize=12;fontStyle=0;aspect=fixed;pointerEvents=1;shape=mxgraph.aws4.nat_gateway;" parent="zMahYsYN_JZd5JUXkMAy-43" vertex="1">
          <mxGeometry x="164" y="57" width="48" height="48" as="geometry" />
        </mxCell>
        <mxCell id="zMahYsYN_JZd5JUXkMAy-49" value="Bastion Host" style="sketch=0;outlineConnect=0;fontColor=#232F3E;gradientColor=none;fillColor=#D45B07;strokeColor=none;dashed=0;verticalLabelPosition=bottom;verticalAlign=top;align=center;html=1;fontSize=12;fontStyle=0;aspect=fixed;pointerEvents=1;shape=mxgraph.aws4.instance2;" parent="zMahYsYN_JZd5JUXkMAy-43" vertex="1">
          <mxGeometry x="13" y="30" width="48" height="48" as="geometry" />
        </mxCell>
        <mxCell id="zMahYsYN_JZd5JUXkMAy-69" style="edgeStyle=orthogonalEdgeStyle;rounded=0;orthogonalLoop=1;jettySize=auto;html=1;startArrow=classic;startFill=1;endArrow=none;endFill=0;" parent="zMahYsYN_JZd5JUXkMAy-43" source="zMahYsYN_JZd5JUXkMAy-59" target="zMahYsYN_JZd5JUXkMAy-52" edge="1">
          <mxGeometry relative="1" as="geometry">
            <Array as="points">
              <mxPoint x="116" y="80" />
            </Array>
          </mxGeometry>
        </mxCell>
        <mxCell id="zMahYsYN_JZd5JUXkMAy-59" value="Route table" style="sketch=0;outlineConnect=0;fontColor=#232F3E;gradientColor=none;strokeColor=#232F3E;fillColor=#ffffff;dashed=0;verticalLabelPosition=bottom;verticalAlign=top;align=center;html=1;fontSize=12;fontStyle=0;aspect=fixed;shape=mxgraph.aws4.resourceIcon;resIcon=mxgraph.aws4.route_table;" parent="zMahYsYN_JZd5JUXkMAy-43" vertex="1">
          <mxGeometry x="86" y="100" width="51" height="51" as="geometry" />
        </mxCell>
        <mxCell id="zMahYsYN_JZd5JUXkMAy-122" value="NACL" style="sketch=0;outlineConnect=0;fontColor=#232F3E;gradientColor=none;fillColor=#4D27AA;strokeColor=none;dashed=0;verticalLabelPosition=bottom;verticalAlign=top;align=center;html=1;fontSize=12;fontStyle=0;aspect=fixed;pointerEvents=1;shape=mxgraph.aws4.network_access_control_list;" parent="zMahYsYN_JZd5JUXkMAy-43" vertex="1">
          <mxGeometry x="201" y="-22" width="38" height="38" as="geometry" />
        </mxCell>
        <mxCell id="zMahYsYN_JZd5JUXkMAy-46" value="Public subnet" style="points=[[0,0],[0.25,0],[0.5,0],[0.75,0],[1,0],[1,0.25],[1,0.5],[1,0.75],[1,1],[0.75,1],[0.5,1],[0.25,1],[0,1],[0,0.75],[0,0.5],[0,0.25]];outlineConnect=0;gradientColor=none;html=1;whiteSpace=wrap;fontSize=12;fontStyle=0;container=1;pointerEvents=0;collapsible=0;recursiveResize=0;shape=mxgraph.aws4.group;grIcon=mxgraph.aws4.group_security_group;grStroke=0;strokeColor=#248814;fillColor=#E9F3E6;verticalAlign=top;align=left;spacingLeft=30;fontColor=#248814;dashed=0;" parent="zMahYsYN_JZd5JUXkMAy-28" vertex="1">
          <mxGeometry x="300" y="590" width="240" height="150" as="geometry" />
        </mxCell>
        <mxCell id="zMahYsYN_JZd5JUXkMAy-65" style="edgeStyle=orthogonalEdgeStyle;rounded=0;orthogonalLoop=1;jettySize=auto;html=1;" parent="zMahYsYN_JZd5JUXkMAy-46" source="zMahYsYN_JZd5JUXkMAy-51" target="zMahYsYN_JZd5JUXkMAy-60" edge="1">
          <mxGeometry relative="1" as="geometry" />
        </mxCell>
        <mxCell id="zMahYsYN_JZd5JUXkMAy-51" value="NAT Gateway&lt;br&gt;" style="sketch=0;outlineConnect=0;fontColor=#232F3E;gradientColor=none;fillColor=#4D27AA;strokeColor=none;dashed=0;verticalLabelPosition=bottom;verticalAlign=top;align=center;html=1;fontSize=12;fontStyle=0;aspect=fixed;pointerEvents=1;shape=mxgraph.aws4.nat_gateway;" parent="zMahYsYN_JZd5JUXkMAy-46" vertex="1">
          <mxGeometry x="175" y="38" width="48" height="48" as="geometry" />
        </mxCell>
        <mxCell id="zMahYsYN_JZd5JUXkMAy-60" value="Route table" style="sketch=0;outlineConnect=0;fontColor=#232F3E;gradientColor=none;strokeColor=#232F3E;fillColor=#ffffff;dashed=0;verticalLabelPosition=bottom;verticalAlign=top;align=center;html=1;fontSize=12;fontStyle=0;aspect=fixed;shape=mxgraph.aws4.resourceIcon;resIcon=mxgraph.aws4.route_table;" parent="zMahYsYN_JZd5JUXkMAy-46" vertex="1">
          <mxGeometry x="106" y="-20" width="51" height="51" as="geometry" />
        </mxCell>
        <mxCell id="zMahYsYN_JZd5JUXkMAy-123" value="NACL" style="sketch=0;outlineConnect=0;fontColor=#232F3E;gradientColor=none;fillColor=#4D27AA;strokeColor=none;dashed=0;verticalLabelPosition=bottom;verticalAlign=top;align=center;html=1;fontSize=12;fontStyle=0;aspect=fixed;pointerEvents=1;shape=mxgraph.aws4.network_access_control_list;" parent="zMahYsYN_JZd5JUXkMAy-46" vertex="1">
          <mxGeometry x="201" y="125" width="38" height="38" as="geometry" />
        </mxCell>
        <mxCell id="zMahYsYN_JZd5JUXkMAy-26" value="IAM" style="outlineConnect=0;dashed=0;verticalLabelPosition=bottom;verticalAlign=top;align=center;html=1;shape=mxgraph.aws3.iam;fillColor=#759C3E;gradientColor=none;" parent="zMahYsYN_JZd5JUXkMAy-28" vertex="1">
          <mxGeometry x="760" y="403" width="20" height="40" as="geometry" />
        </mxCell>
        <mxCell id="zMahYsYN_JZd5JUXkMAy-48" value="Private subnet" style="points=[[0,0],[0.25,0],[0.5,0],[0.75,0],[1,0],[1,0.25],[1,0.5],[1,0.75],[1,1],[0.75,1],[0.5,1],[0.25,1],[0,1],[0,0.75],[0,0.5],[0,0.25]];outlineConnect=0;gradientColor=none;html=1;whiteSpace=wrap;fontSize=12;fontStyle=0;container=1;pointerEvents=0;collapsible=0;recursiveResize=0;shape=mxgraph.aws4.group;grIcon=mxgraph.aws4.group_security_group;grStroke=0;strokeColor=#147EBA;fillColor=#E6F2F8;verticalAlign=top;align=left;spacingLeft=30;fontColor=#147EBA;dashed=0;" parent="zMahYsYN_JZd5JUXkMAy-28" vertex="1">
          <mxGeometry x="860" y="590" width="240" height="150" as="geometry" />
        </mxCell>
        <mxCell id="zMahYsYN_JZd5JUXkMAy-89" value="" style="image;sketch=0;aspect=fixed;html=1;points=[];align=center;fontSize=12;image=img/lib/mscae/Azure_Database_for_PostgreSQL_servers.svg;" parent="zMahYsYN_JZd5JUXkMAy-48" vertex="1">
          <mxGeometry x="59" y="25.340000000000032" width="58" height="76.32" as="geometry" />
        </mxCell>
        <mxCell id="zMahYsYN_JZd5JUXkMAy-90" value="PostgreSQL&lt;br&gt;Primary DB" style="text;strokeColor=none;align=center;fillColor=none;html=1;verticalAlign=middle;whiteSpace=wrap;rounded=0;" parent="zMahYsYN_JZd5JUXkMAy-48" vertex="1">
          <mxGeometry x="47" y="106.65999999999997" width="94" height="30" as="geometry" />
        </mxCell>
        <mxCell id="zMahYsYN_JZd5JUXkMAy-57" style="edgeStyle=orthogonalEdgeStyle;rounded=0;orthogonalLoop=1;jettySize=auto;html=1;" parent="zMahYsYN_JZd5JUXkMAy-28" source="zMahYsYN_JZd5JUXkMAy-54" target="zMahYsYN_JZd5JUXkMAy-52" edge="1">
          <mxGeometry relative="1" as="geometry" />
        </mxCell>
        <mxCell id="zMahYsYN_JZd5JUXkMAy-64" style="edgeStyle=orthogonalEdgeStyle;rounded=0;orthogonalLoop=1;jettySize=auto;html=1;" parent="zMahYsYN_JZd5JUXkMAy-28" source="zMahYsYN_JZd5JUXkMAy-63" target="zMahYsYN_JZd5JUXkMAy-51" edge="1">
          <mxGeometry relative="1" as="geometry" />
        </mxCell>
        <mxCell id="zMahYsYN_JZd5JUXkMAy-74" style="edgeStyle=orthogonalEdgeStyle;rounded=0;orthogonalLoop=1;jettySize=auto;html=1;" parent="zMahYsYN_JZd5JUXkMAy-28" source="zMahYsYN_JZd5JUXkMAy-49" target="zMahYsYN_JZd5JUXkMAy-54" edge="1">
          <mxGeometry relative="1" as="geometry">
            <Array as="points">
              <mxPoint x="500" y="284" />
              <mxPoint x="500" y="284" />
            </Array>
          </mxGeometry>
        </mxCell>
        <mxCell id="zMahYsYN_JZd5JUXkMAy-75" value="SSH" style="edgeLabel;html=1;align=center;verticalAlign=middle;resizable=0;points=[];" parent="zMahYsYN_JZd5JUXkMAy-74" vertex="1" connectable="0">
          <mxGeometry x="-0.4868" y="2" relative="1" as="geometry">
            <mxPoint x="1" y="1" as="offset" />
          </mxGeometry>
        </mxCell>
        <mxCell id="zMahYsYN_JZd5JUXkMAy-81" value="Auto Scaling" style="sketch=0;outlineConnect=0;fontColor=#232F3E;gradientColor=none;fillColor=#D45B07;strokeColor=none;dashed=0;verticalLabelPosition=bottom;verticalAlign=top;align=center;html=1;fontSize=12;fontStyle=0;aspect=fixed;pointerEvents=1;shape=mxgraph.aws4.auto_scaling2;" parent="zMahYsYN_JZd5JUXkMAy-28" vertex="1">
          <mxGeometry x="671" y="450" width="48" height="48" as="geometry" />
        </mxCell>
        <mxCell id="zMahYsYN_JZd5JUXkMAy-82" value="Auto Scaling" style="sketch=0;outlineConnect=0;fontColor=#232F3E;gradientColor=none;fillColor=#D45B07;strokeColor=none;dashed=0;verticalLabelPosition=bottom;verticalAlign=top;align=center;html=1;fontSize=12;fontStyle=0;aspect=fixed;pointerEvents=1;shape=mxgraph.aws4.auto_scaling2;" parent="zMahYsYN_JZd5JUXkMAy-28" vertex="1">
          <mxGeometry x="924" y="450" width="48" height="48" as="geometry" />
        </mxCell>
        <mxCell id="zMahYsYN_JZd5JUXkMAy-114" style="edgeStyle=orthogonalEdgeStyle;rounded=0;orthogonalLoop=1;jettySize=auto;html=1;entryX=0.992;entryY=0.794;entryDx=0;entryDy=0;entryPerimeter=0;startArrow=classic;startFill=1;" parent="zMahYsYN_JZd5JUXkMAy-28" edge="1">
          <mxGeometry relative="1" as="geometry">
            <mxPoint x="1051" y="712" as="sourcePoint" />
            <mxPoint x="729.52" y="675.5219999999999" as="targetPoint" />
            <Array as="points">
              <mxPoint x="1051" y="732" />
              <mxPoint x="760" y="732" />
              <mxPoint x="760" y="676" />
            </Array>
          </mxGeometry>
        </mxCell>
        <mxCell id="zMahYsYN_JZd5JUXkMAy-112" value="EFS &lt;br&gt;Mount&lt;br&gt;Target" style="outlineConnect=0;dashed=0;verticalLabelPosition=bottom;verticalAlign=top;align=center;html=1;shape=mxgraph.aws3.efs_share;fillColor=#E05243;gradientColor=none;" parent="zMahYsYN_JZd5JUXkMAy-28" vertex="1">
          <mxGeometry x="1031" y="620" width="40" height="42.84" as="geometry" />
        </mxCell>
        <mxCell id="zMahYsYN_JZd5JUXkMAy-120" value="NACL" style="sketch=0;outlineConnect=0;fontColor=#232F3E;gradientColor=none;fillColor=#4D27AA;strokeColor=none;dashed=0;verticalLabelPosition=bottom;verticalAlign=top;align=center;html=1;fontSize=12;fontStyle=0;aspect=fixed;pointerEvents=1;shape=mxgraph.aws4.network_access_control_list;" parent="zMahYsYN_JZd5JUXkMAy-28" vertex="1">
          <mxGeometry x="1064" y="716" width="38" height="38" as="geometry" />
        </mxCell>
        <mxCell id="zMahYsYN_JZd5JUXkMAy-127" value="Amazon&lt;br&gt;CloudWatch" style="outlineConnect=0;dashed=0;verticalLabelPosition=bottom;verticalAlign=top;align=center;html=1;shape=mxgraph.aws3.cloudwatch;fillColor=#759C3E;gradientColor=none;" parent="zMahYsYN_JZd5JUXkMAy-28" vertex="1">
          <mxGeometry x="805.63" y="442" width="54.37" height="51" as="geometry" />
        </mxCell>
        <mxCell id="zMahYsYN_JZd5JUXkMAy-129" style="edgeStyle=orthogonalEdgeStyle;rounded=0;orthogonalLoop=1;jettySize=auto;html=1;exitX=0.015;exitY=0.015;exitDx=0;exitDy=0;exitPerimeter=0;dashed=1;dashPattern=1 1;entryX=0.5;entryY=1;entryDx=0;entryDy=0;entryPerimeter=0;" parent="zMahYsYN_JZd5JUXkMAy-28" target="zMahYsYN_JZd5JUXkMAy-127" edge="1">
          <mxGeometry relative="1" as="geometry">
            <Array as="points">
              <mxPoint x="671" y="602" />
              <mxPoint x="800" y="602" />
              <mxPoint x="800" y="493" />
            </Array>
            <mxPoint x="670.9000000000001" y="639.4449999999999" as="sourcePoint" />
            <mxPoint x="350" y="507" as="targetPoint" />
          </mxGeometry>
        </mxCell>
        <mxCell id="zMahYsYN_JZd5JUXkMAy-130" style="edgeStyle=orthogonalEdgeStyle;rounded=0;orthogonalLoop=1;jettySize=auto;html=1;exitX=0.23;exitY=0.77;exitDx=0;exitDy=0;exitPerimeter=0;dashed=1;dashPattern=1 1;entryX=0.5;entryY=0.05;entryDx=0;entryDy=0;entryPerimeter=0;" parent="zMahYsYN_JZd5JUXkMAy-28" target="zMahYsYN_JZd5JUXkMAy-127" edge="1">
          <mxGeometry relative="1" as="geometry">
            <Array as="points">
              <mxPoint x="680" y="334" />
              <mxPoint x="680" y="348" />
              <mxPoint x="800" y="348" />
              <mxPoint x="800" y="445" />
            </Array>
            <mxPoint x="673.8000000000002" y="333.51" as="sourcePoint" />
            <mxPoint x="333" y="440" as="targetPoint" />
          </mxGeometry>
        </mxCell>
        <mxCell id="zMahYsYN_JZd5JUXkMAy-92" value="" style="rounded=1;arcSize=10;dashed=1;fillColor=none;gradientColor=none;dashPattern=1 1;strokeWidth=2;" parent="zMahYsYN_JZd5JUXkMAy-28" vertex="1">
          <mxGeometry x="900" y="270" width="96" height="460" as="geometry" />
        </mxCell>
        <mxCell id="Ch-lbvPgT-3TGhZs1tBC-14" value="Roles" style="outlineConnect=0;dashed=0;verticalLabelPosition=bottom;verticalAlign=top;align=center;html=1;shape=mxgraph.aws3.role;fillColor=#759C3E;gradientColor=none;" parent="zMahYsYN_JZd5JUXkMAy-28" vertex="1">
          <mxGeometry x="752.38" y="515" width="43.25" height="25" as="geometry" />
        </mxCell>
        <mxCell id="Ch-lbvPgT-3TGhZs1tBC-15" value="KMS" style="outlineConnect=0;dashed=0;verticalLabelPosition=bottom;verticalAlign=top;align=center;html=1;shape=mxgraph.aws3.kms;fillColor=#759C3E;gradientColor=none;" parent="zMahYsYN_JZd5JUXkMAy-28" vertex="1">
          <mxGeometry x="755" y="463" width="30" height="30" as="geometry" />
        </mxCell>
        <mxCell id="arhm7RF5yQN0ootWQE9a-1" value="Amazon S3" style="sketch=0;outlineConnect=0;fontColor=#232F3E;gradientColor=none;strokeColor=#ffffff;fillColor=#232F3E;dashed=0;verticalLabelPosition=middle;verticalAlign=bottom;align=center;html=1;whiteSpace=wrap;fontSize=10;fontStyle=1;spacing=3;shape=mxgraph.aws4.productIcon;prIcon=mxgraph.aws4.s3;" vertex="1" parent="zMahYsYN_JZd5JUXkMAy-28">
          <mxGeometry x="20" y="342" width="80" height="100" as="geometry" />
        </mxCell>
        <mxCell id="arhm7RF5yQN0ootWQE9a-2" value="Jira Datacenter" style="image;html=1;image=img/lib/atlassian/Jira_Logo.svg;" vertex="1" parent="zMahYsYN_JZd5JUXkMAy-28">
          <mxGeometry x="20" y="862" width="72" height="72" as="geometry" />
        </mxCell>
        <mxCell id="zMahYsYN_JZd5JUXkMAy-22" value="" style="edgeStyle=orthogonalEdgeStyle;rounded=0;orthogonalLoop=1;jettySize=auto;html=1;startArrow=classic;startFill=1;" parent="1" edge="1">
          <mxGeometry relative="1" as="geometry">
            <mxPoint x="69" y="606" as="sourcePoint" />
            <mxPoint x="69" y="641" as="targetPoint" />
          </mxGeometry>
        </mxCell>
        <mxCell id="Ch-lbvPgT-3TGhZs1tBC-18" value="Terraform State" style="edgeStyle=orthogonalEdgeStyle;rounded=0;orthogonalLoop=1;jettySize=auto;html=1;" parent="1" source="zMahYsYN_JZd5JUXkMAy-11" target="arhm7RF5yQN0ootWQE9a-1" edge="1">
          <mxGeometry relative="1" as="geometry">
            <mxPoint x="212.75" y="518" as="targetPoint" />
            <Array as="points">
              <mxPoint x="69" y="518" />
            </Array>
          </mxGeometry>
        </mxCell>
        <mxCell id="zMahYsYN_JZd5JUXkMAy-11" value="" style="sketch=0;pointerEvents=1;shadow=0;dashed=0;html=1;strokeColor=none;fillColor=#505050;labelPosition=center;verticalLabelPosition=bottom;verticalAlign=top;outlineConnect=0;align=center;shape=mxgraph.office.devices.laptop;" parent="1" vertex="1">
          <mxGeometry x="40" y="568" width="58" height="34" as="geometry" />
        </mxCell>
        <mxCell id="zMahYsYN_JZd5JUXkMAy-18" value="z" style="rounded=0;orthogonalLoop=1;jettySize=auto;html=1;endArrow=classic;endFill=1;shape=link;" parent="1" edge="1">
          <mxGeometry relative="1" as="geometry">
            <mxPoint x="130" y="585" as="sourcePoint" />
            <mxPoint x="95" y="585" as="targetPoint" />
          </mxGeometry>
        </mxCell>
        <mxCell id="zMahYsYN_JZd5JUXkMAy-41" style="edgeStyle=orthogonalEdgeStyle;rounded=0;orthogonalLoop=1;jettySize=auto;html=1;" parent="1" source="zMahYsYN_JZd5JUXkMAy-12" target="zMahYsYN_JZd5JUXkMAy-39" edge="1">
          <mxGeometry relative="1" as="geometry" />
        </mxCell>
        <mxCell id="zMahYsYN_JZd5JUXkMAy-12" value="Internet" style="sketch=0;pointerEvents=1;shadow=0;dashed=0;html=1;strokeColor=none;fillColor=#505050;labelPosition=center;verticalLabelPosition=bottom;verticalAlign=top;outlineConnect=0;align=center;shape=mxgraph.office.concepts.website;" parent="1" vertex="1">
          <mxGeometry x="132" y="558.5" width="59" height="49" as="geometry" />
        </mxCell>
        <mxCell id="zMahYsYN_JZd5JUXkMAy-23" value="&lt;font color=&quot;#000000&quot;&gt;Router&lt;/font&gt;" style="fontColor=#0066CC;verticalAlign=top;verticalLabelPosition=bottom;labelPosition=center;align=center;html=1;outlineConnect=0;fillColor=#CCCCCC;strokeColor=#6881B3;gradientColor=none;gradientDirection=north;strokeWidth=2;shape=mxgraph.networks.router;" parent="1" vertex="1">
          <mxGeometry x="42.13" y="642" width="55.87" height="15" as="geometry" />
        </mxCell>
        <mxCell id="zMahYsYN_JZd5JUXkMAy-116" style="edgeStyle=orthogonalEdgeStyle;rounded=0;orthogonalLoop=1;jettySize=auto;html=1;entryX=0.89;entryY=0.5;entryDx=0;entryDy=0;entryPerimeter=0;startArrow=classic;startFill=1;" parent="1" source="zMahYsYN_JZd5JUXkMAy-37" target="zMahYsYN_JZd5JUXkMAy-111" edge="1">
          <mxGeometry relative="1" as="geometry">
            <Array as="points">
              <mxPoint x="1410" y="598" />
              <mxPoint x="1410" y="414" />
            </Array>
          </mxGeometry>
        </mxCell>
        <mxCell id="zMahYsYN_JZd5JUXkMAy-37" value="Amazon EFS" style="outlineConnect=0;dashed=0;verticalLabelPosition=bottom;verticalAlign=top;align=center;html=1;shape=mxgraph.aws3.efs;fillColor=#E05243;gradientColor=none;" parent="1" vertex="1">
          <mxGeometry x="1421" y="551.5" width="76.5" height="93" as="geometry" />
        </mxCell>
        <mxCell id="zMahYsYN_JZd5JUXkMAy-70" style="edgeStyle=orthogonalEdgeStyle;rounded=0;orthogonalLoop=1;jettySize=auto;html=1;" parent="1" edge="1">
          <mxGeometry relative="1" as="geometry">
            <mxPoint x="635" y="678" as="sourcePoint" />
            <mxPoint x="429" y="607" as="targetPoint" />
            <Array as="points">
              <mxPoint x="635" y="667" />
              <mxPoint x="429" y="667" />
            </Array>
          </mxGeometry>
        </mxCell>
        <mxCell id="zMahYsYN_JZd5JUXkMAy-71" style="edgeStyle=orthogonalEdgeStyle;rounded=0;orthogonalLoop=1;jettySize=auto;html=1;entryX=0.855;entryY=0.145;entryDx=0;entryDy=0;entryPerimeter=0;" parent="1" edge="1">
          <mxGeometry relative="1" as="geometry">
            <mxPoint x="619" y="506" as="sourcePoint" />
            <mxPoint x="425.9949999999999" y="557.44" as="targetPoint" />
            <Array as="points">
              <mxPoint x="619" y="528" />
              <mxPoint x="426" y="528" />
            </Array>
          </mxGeometry>
        </mxCell>
        <mxCell id="zMahYsYN_JZd5JUXkMAy-117" style="edgeStyle=orthogonalEdgeStyle;rounded=0;orthogonalLoop=1;jettySize=auto;html=1;entryX=0.89;entryY=0.5;entryDx=0;entryDy=0;entryPerimeter=0;startArrow=classic;startFill=1;" parent="1" target="zMahYsYN_JZd5JUXkMAy-112" edge="1">
          <mxGeometry relative="1" as="geometry">
            <mxPoint x="1420" y="608" as="sourcePoint" />
            <mxPoint x="1271" y="424" as="targetPoint" />
            <Array as="points">
              <mxPoint x="1410" y="608" />
              <mxPoint x="1410" y="759" />
            </Array>
          </mxGeometry>
        </mxCell>
        <mxCell id="Ch-lbvPgT-3TGhZs1tBC-6" value="Worker-node" style="sketch=0;html=1;dashed=0;whitespace=wrap;fillColor=#2875E2;strokeColor=#ffffff;points=[[0.005,0.63,0],[0.1,0.2,0],[0.9,0.2,0],[0.5,0,0],[0.995,0.63,0],[0.72,0.99,0],[0.5,1,0],[0.28,0.99,0]];verticalLabelPosition=bottom;align=center;verticalAlign=top;shape=mxgraph.kubernetes.icon;prIcon=node" parent="1" vertex="1">
          <mxGeometry x="848" y="400" width="70" height="70" as="geometry" />
        </mxCell>
        <mxCell id="zMahYsYN_JZd5JUXkMAy-113" style="edgeStyle=orthogonalEdgeStyle;rounded=0;orthogonalLoop=1;jettySize=auto;html=1;entryX=0.995;entryY=0.63;entryDx=0;entryDy=0;entryPerimeter=0;startArrow=classic;startFill=1;" parent="1" edge="1">
          <mxGeometry relative="1" as="geometry">
            <Array as="points">
              <mxPoint x="1245" y="378" />
              <mxPoint x="1000" y="378" />
              <mxPoint x="1000" y="444" />
            </Array>
            <mxPoint x="1245" y="393" as="sourcePoint" />
            <mxPoint x="917.6500000000001" y="444.0999999999999" as="targetPoint" />
          </mxGeometry>
        </mxCell>
        <mxCell id="Ch-lbvPgT-3TGhZs1tBC-8" value="Amazon EKS" style="sketch=0;points=[[0,0,0],[0.25,0,0],[0.5,0,0],[0.75,0,0],[1,0,0],[0,1,0],[0.25,1,0],[0.5,1,0],[0.75,1,0],[1,1,0],[0,0.25,0],[0,0.5,0],[0,0.75,0],[1,0.25,0],[1,0.5,0],[1,0.75,0]];outlineConnect=0;fontColor=#232F3E;fillColor=#ED7100;strokeColor=#ffffff;dashed=0;verticalLabelPosition=bottom;verticalAlign=top;align=center;html=1;fontSize=12;fontStyle=0;aspect=fixed;shape=mxgraph.aws4.resourceIcon;resIcon=mxgraph.aws4.eks;" parent="1" vertex="1">
          <mxGeometry x="653" y="550.5" width="78" height="78" as="geometry" />
        </mxCell>
        <mxCell id="Ch-lbvPgT-3TGhZs1tBC-9" style="edgeStyle=orthogonalEdgeStyle;rounded=0;orthogonalLoop=1;jettySize=auto;html=1;entryX=0.005;entryY=0.63;entryDx=0;entryDy=0;entryPerimeter=0;" parent="1" edge="1">
          <mxGeometry relative="1" as="geometry">
            <mxPoint x="809" y="590.5" as="sourcePoint" />
            <mxPoint x="845.3499999999999" y="444.0999999999999" as="targetPoint" />
            <Array as="points">
              <mxPoint x="820" y="591" />
              <mxPoint x="820" y="470" />
              <mxPoint x="845" y="470" />
            </Array>
          </mxGeometry>
        </mxCell>
        <mxCell id="Ch-lbvPgT-3TGhZs1tBC-10" style="edgeStyle=orthogonalEdgeStyle;rounded=0;orthogonalLoop=1;jettySize=auto;html=1;exitX=1;exitY=0.5;exitDx=0;exitDy=0;exitPerimeter=0;entryX=0.229;entryY=0.186;entryDx=0;entryDy=0;entryPerimeter=0;" parent="1" source="Ch-lbvPgT-3TGhZs1tBC-8" target="Ch-lbvPgT-3TGhZs1tBC-5" edge="1">
          <mxGeometry relative="1" as="geometry">
            <mxPoint x="809" y="590.5" as="sourcePoint" />
            <mxPoint x="847" y="768" as="targetPoint" />
            <Array as="points">
              <mxPoint x="731" y="591" />
              <mxPoint x="820" y="591" />
              <mxPoint x="820" y="741" />
              <mxPoint x="847" y="741" />
              <mxPoint x="847" y="754" />
            </Array>
          </mxGeometry>
        </mxCell>
        <mxCell id="Ch-lbvPgT-3TGhZs1tBC-24" value="Deploy Jira Datacenter on self managed Amazon EKS cluster" style="fillColor=#4DA1F5;strokeColor=none;shadow=1;gradientColor=none;fontSize=14;align=left;spacingLeft=50;fontColor=#ffffff;whiteSpace=wrap;html=1;" parent="1" vertex="1">
          <mxGeometry x="17" y="38" width="1620" height="40" as="geometry" />
        </mxCell>
        <mxCell id="Ch-lbvPgT-3TGhZs1tBC-27" value="" style="endArrow=none;dashed=1;html=1;rounded=0;entryX=0;entryY=1;entryDx=0;entryDy=0;" parent="1" target="Ch-lbvPgT-3TGhZs1tBC-24" edge="1">
          <mxGeometry width="50" height="50" relative="1" as="geometry">
            <mxPoint x="20" y="1880" as="sourcePoint" />
            <mxPoint x="700" y="574" as="targetPoint" />
          </mxGeometry>
        </mxCell>
        <mxCell id="Ch-lbvPgT-3TGhZs1tBC-28" value="" style="endArrow=none;dashed=1;html=1;rounded=0;" parent="1" edge="1">
          <mxGeometry width="50" height="50" relative="1" as="geometry">
            <mxPoint x="20" y="1880" as="sourcePoint" />
            <mxPoint x="1640" y="1880" as="targetPoint" />
            <Array as="points">
              <mxPoint x="830" y="1880" />
            </Array>
          </mxGeometry>
        </mxCell>
        <mxCell id="Ch-lbvPgT-3TGhZs1tBC-29" value="" style="endArrow=none;dashed=1;html=1;rounded=0;entryX=1;entryY=1;entryDx=0;entryDy=0;" parent="1" target="Ch-lbvPgT-3TGhZs1tBC-24" edge="1">
          <mxGeometry width="50" height="50" relative="1" as="geometry">
            <mxPoint x="1640" y="1880" as="sourcePoint" />
            <mxPoint x="30" y="48" as="targetPoint" />
          </mxGeometry>
        </mxCell>
        <mxCell id="Ch-lbvPgT-3TGhZs1tBC-30" value="Master-node" style="sketch=0;html=1;dashed=0;whitespace=wrap;fillColor=#2875E2;strokeColor=#ffffff;points=[[0.005,0.63,0],[0.1,0.2,0],[0.9,0.2,0],[0.5,0,0],[0.995,0.63,0],[0.72,0.99,0],[0.5,1,0],[0.28,0.99,0]];verticalLabelPosition=bottom;align=center;verticalAlign=top;shape=mxgraph.kubernetes.icon;prIcon=master" parent="1" vertex="1">
          <mxGeometry x="735" y="549.5" width="80" height="70" as="geometry" />
        </mxCell>
        <mxCell id="Ch-lbvPgT-3TGhZs1tBC-34" value="https://github.com/sriteja28" style="rounded=1;arcSize=9;fillColor=#F7F8F9;align=left;spacingLeft=5;strokeColor=#DEE1E6;html=1;strokeWidth=2;fontColor=#596780;fontSize=12" parent="1" vertex="1">
          <mxGeometry x="1473" y="42" width="159" height="33" as="geometry" />
        </mxCell>
        <mxCell id="K1gADRJT3q73bwG_7fY1-4" value="" style="edgeStyle=orthogonalEdgeStyle;rounded=0;orthogonalLoop=1;jettySize=auto;html=1;" parent="1" source="zMahYsYN_JZd5JUXkMAy-39" edge="1">
          <mxGeometry relative="1" as="geometry">
            <mxPoint x="480" y="583" as="targetPoint" />
          </mxGeometry>
        </mxCell>
        <mxCell id="K1gADRJT3q73bwG_7fY1-6" style="edgeStyle=orthogonalEdgeStyle;rounded=0;orthogonalLoop=1;jettySize=auto;html=1;" parent="1" edge="1">
          <mxGeometry relative="1" as="geometry">
            <mxPoint x="510" y="548" as="sourcePoint" />
            <mxPoint x="857" y="456" as="targetPoint" />
            <Array as="points">
              <mxPoint x="510" y="536" />
              <mxPoint x="787" y="536" />
              <mxPoint x="787" y="476" />
              <mxPoint x="857" y="476" />
            </Array>
          </mxGeometry>
        </mxCell>
        <mxCell id="K1gADRJT3q73bwG_7fY1-7" style="edgeStyle=orthogonalEdgeStyle;rounded=0;orthogonalLoop=1;jettySize=auto;html=1;entryX=0.114;entryY=0.3;entryDx=0;entryDy=0;entryPerimeter=0;" parent="1" target="Ch-lbvPgT-3TGhZs1tBC-5" edge="1">
          <mxGeometry relative="1" as="geometry">
            <mxPoint x="518" y="618" as="sourcePoint" />
            <Array as="points">
              <mxPoint x="518" y="660" />
              <mxPoint x="780" y="660" />
              <mxPoint x="780" y="762" />
            </Array>
          </mxGeometry>
        </mxCell>
        <mxCell id="zMahYsYN_JZd5JUXkMAy-91" value="" style="rounded=1;arcSize=10;dashed=1;fillColor=none;gradientColor=none;dashPattern=1 1;strokeWidth=2;shadow=0;glass=0;" parent="1" vertex="1">
          <mxGeometry x="840" y="376" width="110" height="460" as="geometry" />
        </mxCell>
        <mxCell id="K1gADRJT3q73bwG_7fY1-9" value="Classic &lt;br&gt;Load Balancer" style="outlineConnect=0;dashed=0;verticalLabelPosition=bottom;verticalAlign=top;align=center;html=1;shape=mxgraph.aws3.classic_load_balancer;fillColor=#F58534;gradientColor=none;" parent="1" vertex="1">
          <mxGeometry x="480" y="547" width="69" height="72" as="geometry" />
        </mxCell>
        <mxCell id="K1gADRJT3q73bwG_7fY1-12" style="edgeStyle=orthogonalEdgeStyle;rounded=0;orthogonalLoop=1;jettySize=auto;html=1;exitX=0.23;exitY=0.77;exitDx=0;exitDy=0;exitPerimeter=0;dashed=1;dashPattern=1 1;entryX=-0.021;entryY=0.187;entryDx=0;entryDy=0;entryPerimeter=0;" parent="1" target="zMahYsYN_JZd5JUXkMAy-92" edge="1">
          <mxGeometry relative="1" as="geometry">
            <Array as="points">
              <mxPoint x="890" y="462" />
              <mxPoint x="890" y="476" />
              <mxPoint x="1095" y="476" />
              <mxPoint x="1095" y="474" />
            </Array>
            <mxPoint x="883.8000000000002" y="461.51" as="sourcePoint" />
            <mxPoint x="1043" y="573" as="targetPoint" />
          </mxGeometry>
        </mxCell>
        <mxCell id="K1gADRJT3q73bwG_7fY1-15" value="JDBC" style="edgeLabel;html=1;align=center;verticalAlign=middle;resizable=0;points=[];" parent="K1gADRJT3q73bwG_7fY1-12" vertex="1" connectable="0">
          <mxGeometry x="0.4973" y="4" relative="1" as="geometry">
            <mxPoint y="1" as="offset" />
          </mxGeometry>
        </mxCell>
        <mxCell id="K1gADRJT3q73bwG_7fY1-14" style="edgeStyle=orthogonalEdgeStyle;rounded=0;orthogonalLoop=1;jettySize=auto;html=1;exitX=0.015;exitY=0.015;exitDx=0;exitDy=0;exitPerimeter=0;dashed=1;dashPattern=1 1;entryX=-0.021;entryY=0.828;entryDx=0;entryDy=0;entryPerimeter=0;" parent="1" target="zMahYsYN_JZd5JUXkMAy-92" edge="1">
          <mxGeometry relative="1" as="geometry">
            <Array as="points">
              <mxPoint x="881" y="730" />
              <mxPoint x="1010" y="730" />
              <mxPoint x="1010" y="769" />
            </Array>
            <mxPoint x="880.9000000000001" y="767.4449999999999" as="sourcePoint" />
            <mxPoint x="1043" y="621" as="targetPoint" />
          </mxGeometry>
        </mxCell>
        <mxCell id="K1gADRJT3q73bwG_7fY1-16" value="JDBC" style="edgeLabel;html=1;align=center;verticalAlign=middle;resizable=0;points=[];" parent="K1gADRJT3q73bwG_7fY1-14" vertex="1" connectable="0">
          <mxGeometry x="0.632" y="-2" relative="1" as="geometry">
            <mxPoint as="offset" />
          </mxGeometry>
        </mxCell>
        <mxCell id="arhm7RF5yQN0ootWQE9a-11" value="" style="edgeStyle=orthogonalEdgeStyle;rounded=0;orthogonalLoop=1;jettySize=auto;html=1;" edge="1" parent="1" source="arhm7RF5yQN0ootWQE9a-3" target="arhm7RF5yQN0ootWQE9a-4">
          <mxGeometry relative="1" as="geometry" />
        </mxCell>
        <mxCell id="arhm7RF5yQN0ootWQE9a-12" value="" style="edgeStyle=orthogonalEdgeStyle;rounded=0;orthogonalLoop=1;jettySize=auto;html=1;" edge="1" parent="1" source="arhm7RF5yQN0ootWQE9a-3" target="arhm7RF5yQN0ootWQE9a-10">
          <mxGeometry relative="1" as="geometry" />
        </mxCell>
        <mxCell id="arhm7RF5yQN0ootWQE9a-13" value="" style="edgeStyle=orthogonalEdgeStyle;rounded=0;orthogonalLoop=1;jettySize=auto;html=1;" edge="1" parent="1" source="arhm7RF5yQN0ootWQE9a-3" target="arhm7RF5yQN0ootWQE9a-9">
          <mxGeometry relative="1" as="geometry" />
        </mxCell>
        <mxCell id="arhm7RF5yQN0ootWQE9a-54" style="edgeStyle=orthogonalEdgeStyle;rounded=0;orthogonalLoop=1;jettySize=auto;html=1;" edge="1" parent="1" target="arhm7RF5yQN0ootWQE9a-53">
          <mxGeometry relative="1" as="geometry">
            <mxPoint x="763" y="1380" as="sourcePoint" />
            <mxPoint x="783" y="1570" as="targetPoint" />
            <Array as="points">
              <mxPoint x="780" y="1380" />
              <mxPoint x="780" y="1550" />
              <mxPoint x="755" y="1550" />
            </Array>
          </mxGeometry>
        </mxCell>
        <mxCell id="arhm7RF5yQN0ootWQE9a-56" value="Who is this&lt;br&gt;&amp;nbsp;AWS user?" style="edgeLabel;html=1;align=center;verticalAlign=middle;resizable=0;points=[];" vertex="1" connectable="0" parent="arhm7RF5yQN0ootWQE9a-54">
          <mxGeometry x="0.3744" y="-1" relative="1" as="geometry">
            <mxPoint y="1" as="offset" />
          </mxGeometry>
        </mxCell>
        <mxCell id="arhm7RF5yQN0ootWQE9a-3" value="" style="sketch=0;html=1;dashed=0;whitespace=wrap;fillColor=#2875E2;strokeColor=#ffffff;points=[[0.005,0.63,0],[0.1,0.2,0],[0.9,0.2,0],[0.5,0,0],[0.995,0.63,0],[0.72,0.99,0],[0.5,1,0],[0.28,0.99,0]];verticalLabelPosition=bottom;align=center;verticalAlign=top;shape=mxgraph.kubernetes.icon;prIcon=api" vertex="1" parent="1">
          <mxGeometry x="720" y="1340" width="50" height="48" as="geometry" />
        </mxCell>
        <mxCell id="arhm7RF5yQN0ootWQE9a-4" value="" style="sketch=0;html=1;dashed=0;whitespace=wrap;fillColor=#2875E2;strokeColor=#ffffff;points=[[0.005,0.63,0],[0.1,0.2,0],[0.9,0.2,0],[0.5,0,0],[0.995,0.63,0],[0.72,0.99,0],[0.5,1,0],[0.28,0.99,0]];verticalLabelPosition=bottom;align=center;verticalAlign=top;shape=mxgraph.kubernetes.icon;prIcon=c_c_m" vertex="1" parent="1">
          <mxGeometry x="720" y="1268" width="50" height="48" as="geometry" />
        </mxCell>
        <mxCell id="arhm7RF5yQN0ootWQE9a-7" value="Master" style="sketch=0;html=1;dashed=0;whitespace=wrap;fillColor=#2875E2;strokeColor=#ffffff;points=[[0.005,0.63,0],[0.1,0.2,0],[0.9,0.2,0],[0.5,0,0],[0.995,0.63,0],[0.72,0.99,0],[0.5,1,0],[0.28,0.99,0]];verticalLabelPosition=bottom;align=center;verticalAlign=top;shape=mxgraph.kubernetes.icon;prIcon=master" vertex="1" parent="1">
          <mxGeometry x="560" y="1220" width="50" height="48" as="geometry" />
        </mxCell>
        <mxCell id="arhm7RF5yQN0ootWQE9a-8" value="" style="sketch=0;html=1;dashed=0;whitespace=wrap;fillColor=#2875E2;strokeColor=#ffffff;points=[[0.005,0.63,0],[0.1,0.2,0],[0.9,0.2,0],[0.5,0,0],[0.995,0.63,0],[0.72,0.99,0],[0.5,1,0],[0.28,0.99,0]];verticalLabelPosition=bottom;align=center;verticalAlign=top;shape=mxgraph.kubernetes.icon;prIcon=c_m" vertex="1" parent="1">
          <mxGeometry x="620" y="1316" width="50" height="48" as="geometry" />
        </mxCell>
        <mxCell id="arhm7RF5yQN0ootWQE9a-9" value="etcd" style="sketch=0;html=1;dashed=0;whitespace=wrap;fillColor=#2875E2;strokeColor=#ffffff;points=[[0.005,0.63,0],[0.1,0.2,0],[0.9,0.2,0],[0.5,0,0],[0.995,0.63,0],[0.72,0.99,0],[0.5,1,0],[0.28,0.99,0]];verticalLabelPosition=bottom;align=center;verticalAlign=top;shape=mxgraph.kubernetes.icon;prIcon=etcd" vertex="1" parent="1">
          <mxGeometry x="620" y="1380" width="50" height="48" as="geometry" />
        </mxCell>
        <mxCell id="arhm7RF5yQN0ootWQE9a-10" value="" style="sketch=0;html=1;dashed=0;whitespace=wrap;fillColor=#2875E2;strokeColor=#ffffff;points=[[0.005,0.63,0],[0.1,0.2,0],[0.9,0.2,0],[0.5,0,0],[0.995,0.63,0],[0.72,0.99,0],[0.5,1,0],[0.28,0.99,0]];verticalLabelPosition=bottom;align=center;verticalAlign=top;shape=mxgraph.kubernetes.icon;prIcon=sched" vertex="1" parent="1">
          <mxGeometry x="720" y="1413" width="50" height="48" as="geometry" />
        </mxCell>
        <mxCell id="arhm7RF5yQN0ootWQE9a-14" style="edgeStyle=orthogonalEdgeStyle;rounded=0;orthogonalLoop=1;jettySize=auto;html=1;entryX=0.995;entryY=0.63;entryDx=0;entryDy=0;entryPerimeter=0;" edge="1" parent="1" source="arhm7RF5yQN0ootWQE9a-3" target="arhm7RF5yQN0ootWQE9a-8">
          <mxGeometry relative="1" as="geometry" />
        </mxCell>
        <mxCell id="arhm7RF5yQN0ootWQE9a-15" value="" style="rounded=1;arcSize=10;dashed=1;fillColor=none;gradientColor=none;dashPattern=1 1;strokeWidth=2;" vertex="1" parent="1">
          <mxGeometry x="850" y="1240" width="710" height="280" as="geometry" />
        </mxCell>
        <mxCell id="arhm7RF5yQN0ootWQE9a-92" style="edgeStyle=orthogonalEdgeStyle;rounded=0;orthogonalLoop=1;jettySize=auto;html=1;" edge="1" parent="1" source="arhm7RF5yQN0ootWQE9a-16">
          <mxGeometry relative="1" as="geometry">
            <mxPoint x="1040" y="1600" as="targetPoint" />
            <Array as="points">
              <mxPoint x="865" y="1580" />
              <mxPoint x="1041" y="1580" />
            </Array>
          </mxGeometry>
        </mxCell>
        <mxCell id="arhm7RF5yQN0ootWQE9a-16" value="" style="sketch=0;html=1;dashed=0;whitespace=wrap;fillColor=#2875E2;strokeColor=#ffffff;points=[[0.005,0.63,0],[0.1,0.2,0],[0.9,0.2,0],[0.5,0,0],[0.995,0.63,0],[0.72,0.99,0],[0.5,1,0],[0.28,0.99,0]];verticalLabelPosition=bottom;align=center;verticalAlign=top;shape=mxgraph.kubernetes.icon;prIcon=kubelet" vertex="1" parent="1">
          <mxGeometry x="840" y="1490" width="50" height="48" as="geometry" />
        </mxCell>
        <mxCell id="arhm7RF5yQN0ootWQE9a-17" value="Worker" style="sketch=0;html=1;dashed=0;whitespace=wrap;fillColor=#2875E2;strokeColor=#ffffff;points=[[0.005,0.63,0],[0.1,0.2,0],[0.9,0.2,0],[0.5,0,0],[0.995,0.63,0],[0.72,0.99,0],[0.5,1,0],[0.28,0.99,0]];verticalLabelPosition=bottom;align=center;verticalAlign=top;shape=mxgraph.kubernetes.icon;prIcon=node" vertex="1" parent="1">
          <mxGeometry x="830" y="1220" width="50" height="48" as="geometry" />
        </mxCell>
        <mxCell id="arhm7RF5yQN0ootWQE9a-18" value="" style="sketch=0;html=1;dashed=0;whitespace=wrap;fillColor=#2875E2;strokeColor=#ffffff;points=[[0.005,0.63,0],[0.1,0.2,0],[0.9,0.2,0],[0.5,0,0],[0.995,0.63,0],[0.72,0.99,0],[0.5,1,0],[0.28,0.99,0]];verticalLabelPosition=bottom;align=center;verticalAlign=top;shape=mxgraph.kubernetes.icon;prIcon=k_proxy" vertex="1" parent="1">
          <mxGeometry x="890" y="1490" width="50" height="48" as="geometry" />
        </mxCell>
        <mxCell id="arhm7RF5yQN0ootWQE9a-34" value="" style="edgeStyle=orthogonalEdgeStyle;rounded=0;orthogonalLoop=1;jettySize=auto;html=1;" edge="1" parent="1" source="arhm7RF5yQN0ootWQE9a-19" target="arhm7RF5yQN0ootWQE9a-21">
          <mxGeometry relative="1" as="geometry" />
        </mxCell>
        <mxCell id="arhm7RF5yQN0ootWQE9a-19" value="ing" style="sketch=0;html=1;dashed=0;whitespace=wrap;fillColor=#2875E2;strokeColor=#ffffff;points=[[0.005,0.63,0],[0.1,0.2,0],[0.9,0.2,0],[0.5,0,0],[0.995,0.63,0],[0.72,0.99,0],[0.5,1,0],[0.28,0.99,0]];verticalLabelPosition=bottom;align=center;verticalAlign=top;shape=mxgraph.kubernetes.icon;prIcon=ing" vertex="1" parent="1">
          <mxGeometry x="900" y="1312" width="50" height="48" as="geometry" />
        </mxCell>
        <mxCell id="arhm7RF5yQN0ootWQE9a-20" value="svc" style="sketch=0;html=1;dashed=0;whitespace=wrap;fillColor=#2875E2;strokeColor=#ffffff;points=[[0.005,0.63,0],[0.1,0.2,0],[0.9,0.2,0],[0.5,0,0],[0.995,0.63,0],[0.72,0.99,0],[0.5,1,0],[0.28,0.99,0]];verticalLabelPosition=bottom;align=center;verticalAlign=top;shape=mxgraph.kubernetes.icon;prIcon=svc" vertex="1" parent="1">
          <mxGeometry x="980" y="1312" width="50" height="48" as="geometry" />
        </mxCell>
        <mxCell id="arhm7RF5yQN0ootWQE9a-35" value="" style="edgeStyle=orthogonalEdgeStyle;rounded=0;orthogonalLoop=1;jettySize=auto;html=1;" edge="1" parent="1" source="arhm7RF5yQN0ootWQE9a-21" target="arhm7RF5yQN0ootWQE9a-22">
          <mxGeometry relative="1" as="geometry" />
        </mxCell>
        <mxCell id="arhm7RF5yQN0ootWQE9a-21" value="sts" style="sketch=0;html=1;dashed=0;whitespace=wrap;fillColor=#2875E2;strokeColor=#ffffff;points=[[0.005,0.63,0],[0.1,0.2,0],[0.9,0.2,0],[0.5,0,0],[0.995,0.63,0],[0.72,0.99,0],[0.5,1,0],[0.28,0.99,0]];verticalLabelPosition=bottom;align=center;verticalAlign=top;shape=mxgraph.kubernetes.icon;prIcon=sts" vertex="1" parent="1">
          <mxGeometry x="1060" y="1312" width="50" height="48" as="geometry" />
        </mxCell>
        <mxCell id="arhm7RF5yQN0ootWQE9a-36" value="" style="edgeStyle=orthogonalEdgeStyle;rounded=0;orthogonalLoop=1;jettySize=auto;html=1;" edge="1" parent="1" source="arhm7RF5yQN0ootWQE9a-22" target="arhm7RF5yQN0ootWQE9a-23">
          <mxGeometry relative="1" as="geometry" />
        </mxCell>
        <mxCell id="arhm7RF5yQN0ootWQE9a-43" value="EBS" style="edgeLabel;html=1;align=center;verticalAlign=middle;resizable=0;points=[];" vertex="1" connectable="0" parent="arhm7RF5yQN0ootWQE9a-36">
          <mxGeometry x="0.0638" y="-1" relative="1" as="geometry">
            <mxPoint as="offset" />
          </mxGeometry>
        </mxCell>
        <mxCell id="arhm7RF5yQN0ootWQE9a-39" style="edgeStyle=orthogonalEdgeStyle;rounded=0;orthogonalLoop=1;jettySize=auto;html=1;entryX=0;entryY=0.5;entryDx=0;entryDy=0;" edge="1" parent="1" source="arhm7RF5yQN0ootWQE9a-22" target="arhm7RF5yQN0ootWQE9a-24">
          <mxGeometry relative="1" as="geometry" />
        </mxCell>
        <mxCell id="arhm7RF5yQN0ootWQE9a-44" value="EFS" style="edgeLabel;html=1;align=center;verticalAlign=middle;resizable=0;points=[];" vertex="1" connectable="0" parent="arhm7RF5yQN0ootWQE9a-39">
          <mxGeometry x="0.0364" y="3" relative="1" as="geometry">
            <mxPoint as="offset" />
          </mxGeometry>
        </mxCell>
        <mxCell id="arhm7RF5yQN0ootWQE9a-73" value="" style="edgeStyle=orthogonalEdgeStyle;rounded=0;orthogonalLoop=1;jettySize=auto;html=1;" edge="1" parent="1" source="arhm7RF5yQN0ootWQE9a-22" target="arhm7RF5yQN0ootWQE9a-72">
          <mxGeometry relative="1" as="geometry" />
        </mxCell>
        <mxCell id="arhm7RF5yQN0ootWQE9a-22" value="pod" style="sketch=0;html=1;dashed=0;whitespace=wrap;fillColor=#2875E2;strokeColor=#ffffff;points=[[0.005,0.63,0],[0.1,0.2,0],[0.9,0.2,0],[0.5,0,0],[0.995,0.63,0],[0.72,0.99,0],[0.5,1,0],[0.28,0.99,0]];verticalLabelPosition=bottom;align=center;verticalAlign=top;shape=mxgraph.kubernetes.icon;prIcon=pod" vertex="1" parent="1">
          <mxGeometry x="1140" y="1312" width="50" height="48" as="geometry" />
        </mxCell>
        <mxCell id="arhm7RF5yQN0ootWQE9a-23" value="" style="rounded=1;arcSize=10;dashed=1;fillColor=none;gradientColor=none;dashPattern=1 1;strokeWidth=2;" vertex="1" parent="1">
          <mxGeometry x="1240" y="1252" width="280" height="80" as="geometry" />
        </mxCell>
        <mxCell id="arhm7RF5yQN0ootWQE9a-24" value="" style="rounded=1;arcSize=10;dashed=1;fillColor=none;gradientColor=none;dashPattern=1 1;strokeWidth=2;" vertex="1" parent="1">
          <mxGeometry x="1240" y="1367" width="280" height="85" as="geometry" />
        </mxCell>
        <mxCell id="arhm7RF5yQN0ootWQE9a-41" style="edgeStyle=orthogonalEdgeStyle;rounded=0;orthogonalLoop=1;jettySize=auto;html=1;" edge="1" parent="1" source="arhm7RF5yQN0ootWQE9a-25" target="arhm7RF5yQN0ootWQE9a-27">
          <mxGeometry relative="1" as="geometry" />
        </mxCell>
        <mxCell id="arhm7RF5yQN0ootWQE9a-25" value="pvc" style="sketch=0;html=1;dashed=0;whitespace=wrap;fillColor=#2875E2;strokeColor=#ffffff;points=[[0.005,0.63,0],[0.1,0.2,0],[0.9,0.2,0],[0.5,0,0],[0.995,0.63,0],[0.72,0.99,0],[0.5,1,0],[0.28,0.99,0]];verticalLabelPosition=bottom;align=center;verticalAlign=top;shape=mxgraph.kubernetes.icon;prIcon=pvc" vertex="1" parent="1">
          <mxGeometry x="1250.1799999999998" y="1376" width="50" height="48" as="geometry" />
        </mxCell>
        <mxCell id="arhm7RF5yQN0ootWQE9a-37" value="" style="edgeStyle=orthogonalEdgeStyle;rounded=0;orthogonalLoop=1;jettySize=auto;html=1;" edge="1" parent="1" source="arhm7RF5yQN0ootWQE9a-26" target="arhm7RF5yQN0ootWQE9a-28">
          <mxGeometry relative="1" as="geometry" />
        </mxCell>
        <mxCell id="arhm7RF5yQN0ootWQE9a-26" value="pvc" style="sketch=0;html=1;dashed=0;whitespace=wrap;fillColor=#2875E2;strokeColor=#ffffff;points=[[0.005,0.63,0],[0.1,0.2,0],[0.9,0.2,0],[0.5,0,0],[0.995,0.63,0],[0.72,0.99,0],[0.5,1,0],[0.28,0.99,0]];verticalLabelPosition=bottom;align=center;verticalAlign=top;shape=mxgraph.kubernetes.icon;prIcon=pvc" vertex="1" parent="1">
          <mxGeometry x="1250.1799999999998" y="1261" width="50" height="48" as="geometry" />
        </mxCell>
        <mxCell id="arhm7RF5yQN0ootWQE9a-27" value="pv" style="sketch=0;html=1;dashed=0;whitespace=wrap;fillColor=#2875E2;strokeColor=#ffffff;points=[[0.005,0.63,0],[0.1,0.2,0],[0.9,0.2,0],[0.5,0,0],[0.995,0.63,0],[0.72,0.99,0],[0.5,1,0],[0.28,0.99,0]];verticalLabelPosition=bottom;align=center;verticalAlign=top;shape=mxgraph.kubernetes.icon;prIcon=pv" vertex="1" parent="1">
          <mxGeometry x="1355" y="1376" width="50" height="48" as="geometry" />
        </mxCell>
        <mxCell id="arhm7RF5yQN0ootWQE9a-38" value="" style="edgeStyle=orthogonalEdgeStyle;rounded=0;orthogonalLoop=1;jettySize=auto;html=1;" edge="1" parent="1" source="arhm7RF5yQN0ootWQE9a-28" target="arhm7RF5yQN0ootWQE9a-29">
          <mxGeometry relative="1" as="geometry" />
        </mxCell>
        <mxCell id="arhm7RF5yQN0ootWQE9a-28" value="pv" style="sketch=0;html=1;dashed=0;whitespace=wrap;fillColor=#2875E2;strokeColor=#ffffff;points=[[0.005,0.63,0],[0.1,0.2,0],[0.9,0.2,0],[0.5,0,0],[0.995,0.63,0],[0.72,0.99,0],[0.5,1,0],[0.28,0.99,0]];verticalLabelPosition=bottom;align=center;verticalAlign=top;shape=mxgraph.kubernetes.icon;prIcon=pv" vertex="1" parent="1">
          <mxGeometry x="1350" y="1261" width="50" height="48" as="geometry" />
        </mxCell>
        <mxCell id="arhm7RF5yQN0ootWQE9a-29" value="sc" style="sketch=0;html=1;dashed=0;whitespace=wrap;fillColor=#2875E2;strokeColor=#ffffff;points=[[0.005,0.63,0],[0.1,0.2,0],[0.9,0.2,0],[0.5,0,0],[0.995,0.63,0],[0.72,0.99,0],[0.5,1,0],[0.28,0.99,0]];verticalLabelPosition=bottom;align=center;verticalAlign=top;shape=mxgraph.kubernetes.icon;prIcon=sc" vertex="1" parent="1">
          <mxGeometry x="1447.5" y="1261" width="50" height="48" as="geometry" />
        </mxCell>
        <mxCell id="arhm7RF5yQN0ootWQE9a-30" value="sc" style="sketch=0;html=1;dashed=0;whitespace=wrap;fillColor=#2875E2;strokeColor=#ffffff;points=[[0.005,0.63,0],[0.1,0.2,0],[0.9,0.2,0],[0.5,0,0],[0.995,0.63,0],[0.72,0.99,0],[0.5,1,0],[0.28,0.99,0]];verticalLabelPosition=bottom;align=center;verticalAlign=top;shape=mxgraph.kubernetes.icon;prIcon=sc" vertex="1" parent="1">
          <mxGeometry x="1449.5" y="1378" width="50" height="48" as="geometry" />
        </mxCell>
        <mxCell id="arhm7RF5yQN0ootWQE9a-31" style="edgeStyle=orthogonalEdgeStyle;rounded=0;orthogonalLoop=1;jettySize=auto;html=1;entryX=0.005;entryY=0.63;entryDx=0;entryDy=0;entryPerimeter=0;" edge="1" parent="1" source="arhm7RF5yQN0ootWQE9a-3" target="arhm7RF5yQN0ootWQE9a-17">
          <mxGeometry relative="1" as="geometry" />
        </mxCell>
        <mxCell id="arhm7RF5yQN0ootWQE9a-32" value="" style="image;sketch=0;aspect=fixed;html=1;points=[];align=center;fontSize=12;image=img/lib/mscae/Kubernetes.svg;" vertex="1" parent="1">
          <mxGeometry x="460" y="1180" width="50" height="48" as="geometry" />
        </mxCell>
        <mxCell id="arhm7RF5yQN0ootWQE9a-33" style="edgeStyle=orthogonalEdgeStyle;rounded=0;orthogonalLoop=1;jettySize=auto;html=1;entryX=0.005;entryY=0.63;entryDx=0;entryDy=0;entryPerimeter=0;" edge="1" parent="1" source="K1gADRJT3q73bwG_7fY1-9" target="arhm7RF5yQN0ootWQE9a-19">
          <mxGeometry relative="1" as="geometry">
            <Array as="points">
              <mxPoint x="580" y="583" />
              <mxPoint x="580" y="1170" />
              <mxPoint x="830" y="1170" />
              <mxPoint x="830" y="1342" />
            </Array>
          </mxGeometry>
        </mxCell>
        <mxCell id="arhm7RF5yQN0ootWQE9a-42" style="edgeStyle=orthogonalEdgeStyle;rounded=0;orthogonalLoop=1;jettySize=auto;html=1;" edge="1" parent="1" source="arhm7RF5yQN0ootWQE9a-27">
          <mxGeometry relative="1" as="geometry">
            <mxPoint x="1450" y="1400" as="targetPoint" />
          </mxGeometry>
        </mxCell>
        <mxCell id="arhm7RF5yQN0ootWQE9a-45" value="" style="editableCssRules=.*;html=1;shape=image;verticalLabelPosition=bottom;labelBackgroundColor=#ffffff;verticalAlign=top;aspect=fixed;imageAspect=0;image=data:image/svg+xml,PHN2ZyB4bWxucz0iaHR0cDovL3d3dy53My5vcmcvMjAwMC9zdmciIHhtbG5zOnhsaW5rPSJodHRwOi8vd3d3LnczLm9yZy8xOTk5L3hsaW5rIiB4bWxuczp2PSJodHRwczovL3ZlY3RhLmlvL25hbm8iIHdpZHRoPSI3MTguNjM1MDcwODAwNzgxMiIgaGVpZ2h0PSIxMDYuNjUwMDAxNTI1ODc4OSIgdmlld0JveD0iMTAgMTAgNzE4LjYzNTA3MDgwMDc4MTIgMTA2LjY1MDAwMTUyNTg3ODkiPiYjeGE7CTxzdHlsZSB0eXBlPSJ0ZXh0L2NzcyI+JiN4YTsJLnN0MHtmaWxsOiMzMjZkZTU7fSYjeGE7CTwvc3R5bGU+JiN4YTsJPGcgY2xhc3M9InN0MCIgZmlsbD0iIzMyNmRlNSI+JiN4YTsJCTxwYXRoIGQ9Ik0zMC4xMTUgNjkuNGw2LjA3NS02Ljc1IDYuMjEtNi44ODUgNS41MzUtNi42MTUgNC41OS01LjRINzYuNDJMNjIuMzggNTkuNTQ1Yy00LjUgNC45NS05LjQ1IDEwLjA4LTE0Ljg1IDE1LjM5IDIuNyAyLjQzIDUuNDkgNS4zNTUgOC4zNyA4Ljc3NWExOTEuODYgMTkxLjg2IDAgMCAxIDguMzcgMTAuMzk1YzIuNyAzLjYgNS4xNzUgNy4yIDcuNDI1IDEwLjhzNC4xNCA2Ljg4NSA1LjY3IDkuODU1SDU0LjI4Yy0xLjQ0LTIuMzQtMy4xMDUtNC45MDUtNC45OTUtNy42OTUtMS44LTIuODgtMy43MzUtNS43MTUtNS44MDUtOC41MDVhOTguMDcgOTguMDcgMCAwIDAtNi42MTUtOC4yMzVjLTIuMjUtMi42MS00LjUtNC44MTUtNi43NS02LjYxNXYzMS4wNUgxMFYxMy4yNEwzMC4xMTUgMTB2NTkuNG0xMTcuMjI5IDQyLjkzYy0zLjQyLjk5LTcuODMgMS44OS0xMy4yMyAyLjctNS40LjktMTEuMDcgMS4zNS0xNy4wMSAxLjM1LTYuMDMgMC0xMS4wNy0uODEtMTUuMTItMi40My0zLjk2LTEuNjItNy4xMS0zLjg3LTkuNDUtNi43NS0yLjM0LTIuOTctNC4wMDUtNi40OC00Ljk5NS0xMC41M3MtMS40ODUtOC41MDUtMS40ODUtMTMuMzY1VjQzLjc1aDIwLjExNXYzNy4xMjVjMCA2LjQ4Ljg1NSAxMS4xNiAyLjU2NSAxNC4wNHM0LjkwNSA0LjMyIDkuNTg1IDQuMzJhODIuOTUgODIuOTUgMCAwIDAgNC41OS0uMTM1bDQuMzItLjU0VjQzLjc1aDIwLjExNXY2OC41OG02NC41MDktMzMuNjE1YzAtMTIuOTYtNC43Ny0xOS40NC0xNC4zMS0xOS40NC0yLjA3IDAtNC4xNC4yNy02LjIxLjgxLTEuOTguNTQtMy42IDEuMjE1LTQuODYgMi4wMjV2MzYuNTg1Yy45OS4xOCAyLjI1LjM2IDMuNzguNTRhODUuNDQgODUuNDQgMCAwIDAgNC45OTUuMTM1YzUuNDkgMCA5LjYzLTEuODkgMTIuNDItNS42N3M0LjE4NS04Ljc3NSA0LjE4NS0xNC45ODVtMjAuNTIuNTRjMCA1LjY3LS44NTUgMTAuOC0yLjU2NSAxNS4zOS0xLjYyIDQuNTktNC4wMDUgOC41MDUtNy4xNTUgMTEuNzQ1cy03LjAyIDUuNzYtMTEuNjEgNy41NmMtNC41OSAxLjcxLTkuODEgMi41NjUtMTUuNjYgMi41NjUtMi40MyAwLTQuOTk1LS4xMzUtNy42OTUtLjQwNWExMTUuMzkgMTE1LjM5IDAgMCAxLTcuODMtLjgxYy0yLjUyLS4zNi00Ljk1LS43NjUtNy4yOS0xLjIxNS0yLjM0LS41NC00LjQxLTEuMDgtNi4yMS0xLjYyVjEzLjI0TDE4Ni40NzMgMTB2MzUuMzdjMi4yNS0uOTkgNC41OS0xLjc1NSA3LjAyLTIuMjk1czUuMDQtLjgxIDcuODMtLjgxYzUuMDQgMCA5LjQ5NS45IDEzLjM2NSAyLjcgMy44NyAxLjcxIDcuMTEgNC4xODUgOS43MiA3LjQyNXM0LjU5IDcuMTU1IDUuOTQgMTEuNzQ1YzEuMzUgNC41IDIuMDI1IDkuNTQgMi4wMjUgMTUuMTIiLz4mI3hhOwkJPHVzZSB4bGluazpocmVmPSIjQiIvPiYjeGE7CQk8cGF0aCBkPSJNMzY5LjQ2NSA2MS41N2wtNi4zNDUtMS4zNWMtMi40My0uNTQtNS4wNC0uODEtNy44My0uODEtMS4yNiAwLTIuNzkuMTM1LTQuNTkuNDA1LTEuNzEuMTgtMy4wMTUuNDA1LTMuOTE1LjY3NXY1NC4yN0gzMjYuNjdWNDcuNTNjMy42LTEuMjYgNy44My0yLjQzIDEyLjY5LTMuNTEgNC45NS0xLjE3IDEwLjQ0LTEuNzU1IDE2LjQ3LTEuNzU1IDEuMDggMCAyLjM4NS4wOSAzLjkxNS4yN2EzOS45IDM5LjkgMCAwIDEgNC41OS41NCA0MC45MiA0MC45MiAwIDAgMSA0LjU5LjgxYzEuNTMuMjcgMi44MzUuNjMgMy45MTUgMS4wOGwtMy4zNzUgMTYuNjA1bTE0LjE1OC0xNS4zOWMzLjQyLS45OSA3LjgzLTEuODkgMTMuMjMtMi43IDUuNC0uOSAxMS4wNy0xLjM1IDE3LjAxLTEuMzUgNi4wMyAwIDExLjAyNS44MSAxNC45ODUgMi40MyA0LjA1IDEuNTMgNy4yNDUgMy43MzUgOS41ODUgNi42MTVzNC4wMDUgNi4zIDQuOTk1IDEwLjI2IDEuNDg1IDguMzcgMS40ODUgMTMuMjN2NDAuMDk1aC0yMC4xMTVWNzcuMDk1YzAtNi40OC0uODU1LTExLjA3LTIuNTY1LTEzLjc3cy00LjkwNS00LjA1LTkuNTg1LTQuMDVhNDEuNjYgNDEuNjYgMCAwIDAtNC41OS4yNyA1MC43NyA1MC43NyAwIDAgMC00LjMyLjQwNXY1NC44MWgtMjAuMTE1VjQ2LjE4bTc2LjI1NCAzMy42MTVjMC02LjMuOTQ1LTExLjc5IDIuODM1LTE2LjQ3IDEuOTgtNC43NyA0LjU0NS04LjczIDcuNjk1LTExLjg4czYuNzUtNS41MzUgMTAuOC03LjE1NWM0LjE0LTEuNjIgOC4zNy0yLjQzIDEyLjY5LTIuNDMgMTAuMDggMCAxOC4wNDUgMy4xMDUgMjMuODk1IDkuMzE1IDUuODUgNi4xMiA4Ljc3NSAxNS4xNjUgOC43NzUgMjcuMTM1IDAgMS4xNy0uMDQ1IDIuNDc1LS4xMzUgMy45MTVsLS4yNyAzLjY0NWgtNDUuNjNjLjQ1IDQuMTQgMi4zODUgNy40MjUgNS44MDUgOS44NTVzOC4wMSAzLjY0NSAxMy43NyAzLjY0NWMzLjY5IDAgNy4yOS0uMzE1IDEwLjgtLjk0NSAzLjYtLjcyIDYuNTI1LTEuNTc1IDguNzc1LTIuNTY1bDIuNyAxNi4zMzVjLTEuMDguNTQtMi41MiAxLjA4LTQuMzIgMS42MnMtMy44MjUuOTktNi4wNzUgMS4zNWMtMi4xNi40NS00LjUuODEtNy4wMiAxLjA4cy01LjA0LjQwNS03LjU2LjQwNWMtNi4zOSAwLTExLjk3LS45NDUtMTYuNzQtMi44MzUtNC42OC0xLjg5LTguNTk1LTQuNDU1LTExLjc0NS03LjY5NS0zLjA2LTMuMzMtNS4zNTUtNy4yNDUtNi44ODUtMTEuNzQ1LTEuNDQtNC41LTIuMTYtOS4zNi0yLjE2LTE0LjU4bTQ3LjI1LTcuNjk1YTE4Ljg2IDE4Ljg2IDAgMCAwLS45NDUtNC45OTVjLS40NS0xLjYyLTEuMjE1LTMuMDYtMi4yOTUtNC4zMi0uOTktMS4yNi0yLjI5NS0yLjI5NS0zLjkxNS0zLjEwNS0xLjUzLS44MS0zLjQ2NS0xLjIxNS01LjgwNS0xLjIxNS0yLjI1IDAtNC4xODUuNDA1LTUuODA1IDEuMjE1LTEuNjIuNzItMi45NyAxLjcxLTQuMDUgMi45N3MtMS45MzUgMi43NDUtMi41NjUgNC40NTVhMzEuMTEgMzEuMTEgMCAwIDAtMS4yMTUgNC45OTVoMjYuNTk1bTM0LjI4OC00Ni4wMzVsMjAuMTE1LTMuMjRWNDMuNzVoMjQuMTY1djE2Ljc0SDU2MS41M3YyNC45NzVjMCA0LjIzLjcyIDcuNjA1IDIuMTYgMTAuMTI1IDEuNTMgMi41MiA0LjU0NSAzLjc4IDkuMDQ1IDMuNzggMi4xNiAwIDQuMzY1LS4xOCA2LjYxNS0uNTQgMi4zNC0uNDUgNC40NTUtMS4wMzUgNi4zNDUtMS43NTVsMi44MzUgMTUuNjZjLTIuNDMuOTktNS4xMyAxLjg0NS04LjEgMi41NjVzLTYuNjE1IDEuMDgtMTAuOTM1IDEuMDhjLTUuNDkgMC0xMC4wMzUtLjcyLTEzLjYzNS0yLjE2LTMuNi0xLjUzLTYuNDgtMy42LTguNjQtNi4yMS0yLjE2LTIuNy0zLjY5LTUuOTQtNC41OS05LjcyLS44MS0zLjc4LTEuMjE1LTcuOTY1LTEuMjE1LTEyLjU1NXYtNTkuNjciLz4mI3hhOwkJPHVzZSB4bGluazpocmVmPSIjQiIgeD0iMzUxLjQ3NSIvPiYjeGE7CQk8cGF0aCBkPSJNNjk4LjUzIDEwMC4zMTVjMy42OSAwIDYuMy0uMzYgNy44My0xLjA4czIuMjk1LTIuMTE1IDIuMjk1LTQuMTg1YzAtMS42Mi0uOTktMy4wMTUtMi45Ny00LjE4NS0xLjk4LTEuMjYtNC45OTUtMi42NTUtOS4wNDUtNC4xODVMNjg4IDgzLjAzNWMtMi41Mi0xLjI2LTQuNjgtMi43NDUtNi40OC00LjQ1NS0xLjgtMS44LTMuMTk1LTMuOTE1LTQuMTg1LTYuMzQ1cy0xLjQ4NS01LjM1NS0xLjQ4NS04Ljc3NWMwLTYuNjYgMi40NzUtMTEuOTI1IDcuNDI1LTE1Ljc5NXMxMS43NDUtNS44MDUgMjAuMzg1LTUuODA1YzQuMzIgMCA4LjQ2LjQwNSAxMi40MiAxLjIxNSAzLjk2LjcyIDcuMTEgMS41MyA5LjQ1IDIuNDNsLTMuNTEgMTUuNjZjLTIuMzQtLjgxLTQuOTA1LTEuNTMtNy42OTUtMi4xNi0yLjctLjYzLTUuNzYtLjk0NS05LjE4LS45NDUtNi4zIDAtOS40NSAxLjc1NS05LjQ1IDUuMjY1IDAgLjgxLjEzNSAxLjUzLjQwNSAyLjE2cy44MSAxLjI2IDEuNjIgMS44OWMuODEuNTQgMS44OSAxLjE3IDMuMjQgMS44OSAxLjQ0LjYzIDMuMjQgMS4zNSA1LjQgMi4xNiA0LjQxIDEuNjIgOC4wNTUgMy4yNCAxMC45MzUgNC44NiAyLjg4IDEuNTMgNS4xMyAzLjI0IDYuNzUgNS4xMyAxLjcxIDEuOCAyLjg4IDMuODI1IDMuNTEgNi4wNzUuNzIgMi4yNSAxLjA4IDQuODYgMS4wOCA3LjgzIDAgNy4wMi0yLjY1NSAxMi4zMy03Ljk2NSAxNS45My01LjIyIDMuNi0xMi42NDUgNS40LTIyLjI3NSA1LjQtNi4zIDAtMTEuNTY1LS41NC0xNS43OTUtMS42Mi00LjE0LTEuMDgtNy4wMi0xLjk4LTguNjQtMi43bDMuMzc1LTE2LjMzNWE3MS4yIDcxLjIgMCAwIDAgMTAuNTMgMy4yNCA1NC4yOCA1NC4yOCAwIDAgMCAxMC42NjUgMS4wOCIvPiYjeGE7CTwvZz4mI3hhOwk8ZGVmcz4mI3hhOwkJPHBhdGggaWQ9IkIiIGQ9Ik0yNDQuNDU3IDc5Ljc5NWMwLTYuMy45NDUtMTEuNzkgMi44MzUtMTYuNDcgMS45OC00Ljc3IDQuNTQ1LTguNzMgNy42OTUtMTEuODhzNi43NS01LjUzNSAxMC44LTcuMTU1YzQuMTQtMS42MiA4LjM3LTIuNDMgMTIuNjktMi40MyAxMC4wOCAwIDE4LjA0NSAzLjEwNSAyMy44OTUgOS4zMTUgNS44NSA2LjEyIDguNzc1IDE1LjE2NSA4Ljc3NSAyNy4xMzUgMCAxLjE3LS4wNDUgMi40NzUtLjEzNSAzLjkxNWwtLjI3IDMuNjQ1aC00NS42M2MuNDUgNC4xNCAyLjM4NSA3LjQyNSA1LjgwNSA5Ljg1NXM4LjAxIDMuNjQ1IDEzLjc3IDMuNjQ1YzMuNjkgMCA3LjI5LS4zMTUgMTAuOC0uOTQ1IDMuNi0uNzIgNi41MjUtMS41NzUgOC43NzUtMi41NjVsMi43IDE2LjMzNWMtMS4wOC41NC0yLjUyIDEuMDgtNC4zMiAxLjYycy0zLjgyNS45OS02LjA3NSAxLjM1Yy0yLjE2LjQ1LTQuNS44MS03LjAyIDEuMDhzLTUuMDQuNDA1LTcuNTYuNDA1Yy02LjM5IDAtMTEuOTctLjk0NS0xNi43NC0yLjgzNS00LjY4LTEuODktOC41OTUtNC40NTUtMTEuNzQ1LTcuNjk1LTMuMDYtMy4zMy01LjM1NS03LjI0NS02Ljg4NS0xMS43NDUtMS40NC00LjUtMi4xNi05LjM2LTIuMTYtMTQuNThtNDcuMjUtNy42OTVhMTguODYgMTguODYgMCAwIDAtLjk0NS00Ljk5NWMtLjQ1LTEuNjItMS4yMTUtMy4wNi0yLjI5NS00LjMyLS45OS0xLjI2LTIuMjk1LTIuMjk1LTMuOTE1LTMuMTA1LTEuNTMtLjgxLTMuNDY1LTEuMjE1LTUuODA1LTEuMjE1LTIuMjUgMC00LjE4NS40MDUtNS44MDUgMS4yMTUtMS42Mi43Mi0yLjk3IDEuNzEtNC4wNSAyLjk3cy0xLjkzNSAyLjc0NS0yLjU2NSA0LjQ1NWMtLjU0IDEuNjItLjk0NSAzLjI4NS0xLjIxNSA0Ljk5NWgyNi41OTUiLz4mI3hhOwk8L2RlZnM+JiN4YTs8L3N2Zz4=;fontColor=default;" vertex="1" parent="1">
          <mxGeometry x="260" y="1191.85" width="190" height="28.15" as="geometry" />
        </mxCell>
        <mxCell id="arhm7RF5yQN0ootWQE9a-48" value="kubectl" style="shape=image;html=1;verticalAlign=top;verticalLabelPosition=bottom;labelBackgroundColor=#ffffff;imageAspect=0;aspect=fixed;image=https://cdn1.iconfinder.com/data/icons/ionicons-fill-vol-2/512/terminal-128.png" vertex="1" parent="1">
          <mxGeometry x="341" y="1506" width="60" height="60" as="geometry" />
        </mxCell>
        <mxCell id="arhm7RF5yQN0ootWQE9a-50" style="edgeStyle=orthogonalEdgeStyle;rounded=0;orthogonalLoop=1;jettySize=auto;html=1;" edge="1" parent="1" source="arhm7RF5yQN0ootWQE9a-49" target="arhm7RF5yQN0ootWQE9a-48">
          <mxGeometry relative="1" as="geometry" />
        </mxCell>
        <mxCell id="arhm7RF5yQN0ootWQE9a-49" value="IAM&lt;br&gt;user: eks-viewer" style="sketch=0;outlineConnect=0;fontColor=#232F3E;gradientColor=none;strokeColor=#232F3E;fillColor=#ffffff;dashed=0;verticalLabelPosition=bottom;verticalAlign=top;align=center;html=1;fontSize=12;fontStyle=0;aspect=fixed;shape=mxgraph.aws4.resourceIcon;resIcon=mxgraph.aws4.user;" vertex="1" parent="1">
          <mxGeometry x="214" y="1513" width="46" height="46" as="geometry" />
        </mxCell>
        <mxCell id="arhm7RF5yQN0ootWQE9a-51" style="edgeStyle=orthogonalEdgeStyle;rounded=0;orthogonalLoop=1;jettySize=auto;html=1;entryX=0.005;entryY=0.63;entryDx=0;entryDy=0;entryPerimeter=0;" edge="1" parent="1" source="arhm7RF5yQN0ootWQE9a-48" target="arhm7RF5yQN0ootWQE9a-3">
          <mxGeometry relative="1" as="geometry">
            <mxPoint x="728" y="1405.024" as="targetPoint" />
            <Array as="points">
              <mxPoint x="710" y="1536" />
              <mxPoint x="710" y="1370" />
            </Array>
          </mxGeometry>
        </mxCell>
        <mxCell id="arhm7RF5yQN0ootWQE9a-52" value="kubectl get pod" style="edgeLabel;html=1;align=center;verticalAlign=middle;resizable=0;points=[];" vertex="1" connectable="0" parent="arhm7RF5yQN0ootWQE9a-51">
          <mxGeometry x="-0.5153" relative="1" as="geometry">
            <mxPoint x="14" as="offset" />
          </mxGeometry>
        </mxCell>
        <mxCell id="arhm7RF5yQN0ootWQE9a-58" style="edgeStyle=orthogonalEdgeStyle;rounded=0;orthogonalLoop=1;jettySize=auto;html=1;" edge="1" parent="1" source="arhm7RF5yQN0ootWQE9a-53" target="arhm7RF5yQN0ootWQE9a-57">
          <mxGeometry relative="1" as="geometry" />
        </mxCell>
        <mxCell id="arhm7RF5yQN0ootWQE9a-59" value="Who is &lt;br&gt;this user?" style="edgeLabel;html=1;align=center;verticalAlign=middle;resizable=0;points=[];" vertex="1" connectable="0" parent="arhm7RF5yQN0ootWQE9a-58">
          <mxGeometry x="0.1385" y="2" relative="1" as="geometry">
            <mxPoint as="offset" />
          </mxGeometry>
        </mxCell>
        <mxCell id="arhm7RF5yQN0ootWQE9a-53" value="AWS IAM&lt;br&gt;Authenticator" style="sketch=0;pointerEvents=1;shadow=0;dashed=0;html=1;strokeColor=none;labelPosition=center;verticalLabelPosition=bottom;verticalAlign=top;outlineConnect=0;align=center;shape=mxgraph.office.security.lock_protected;fillColor=#7FBA42;" vertex="1" parent="1">
          <mxGeometry x="740" y="1584" width="30" height="40" as="geometry" />
        </mxCell>
        <mxCell id="arhm7RF5yQN0ootWQE9a-60" style="edgeStyle=orthogonalEdgeStyle;rounded=0;orthogonalLoop=1;jettySize=auto;html=1;" edge="1" parent="1" source="arhm7RF5yQN0ootWQE9a-57">
          <mxGeometry relative="1" as="geometry">
            <mxPoint x="755" y="1664" as="targetPoint" />
            <Array as="points">
              <mxPoint x="595" y="1694" />
              <mxPoint x="755" y="1694" />
            </Array>
          </mxGeometry>
        </mxCell>
        <mxCell id="arhm7RF5yQN0ootWQE9a-61" value="I Verify &lt;br&gt;this AWS User" style="edgeLabel;html=1;align=center;verticalAlign=middle;resizable=0;points=[];" vertex="1" connectable="0" parent="arhm7RF5yQN0ootWQE9a-60">
          <mxGeometry x="0.152" y="4" relative="1" as="geometry">
            <mxPoint as="offset" />
          </mxGeometry>
        </mxCell>
        <mxCell id="arhm7RF5yQN0ootWQE9a-57" value="IAM" style="outlineConnect=0;dashed=0;verticalLabelPosition=bottom;verticalAlign=top;align=center;html=1;shape=mxgraph.aws3.iam;fillColor=#759C3E;gradientColor=none;" vertex="1" parent="1">
          <mxGeometry x="580" y="1574" width="30" height="60" as="geometry" />
        </mxCell>
        <mxCell id="arhm7RF5yQN0ootWQE9a-63" value="aws-auth&lt;br&gt;(config map)" style="sketch=0;html=1;dashed=0;whitespace=wrap;fillColor=#2875E2;strokeColor=#ffffff;points=[[0.005,0.63,0],[0.1,0.2,0],[0.9,0.2,0],[0.5,0,0],[0.995,0.63,0],[0.72,0.99,0],[0.5,1,0],[0.28,0.99,0]];verticalLabelPosition=bottom;align=center;verticalAlign=top;shape=mxgraph.kubernetes.icon;prIcon=cm" vertex="1" parent="1">
          <mxGeometry x="700" y="1724" width="60" height="60" as="geometry" />
        </mxCell>
        <mxCell id="arhm7RF5yQN0ootWQE9a-65" style="edgeStyle=orthogonalEdgeStyle;rounded=0;orthogonalLoop=1;jettySize=auto;html=1;entryX=0.995;entryY=0.63;entryDx=0;entryDy=0;entryPerimeter=0;" edge="1" parent="1" source="arhm7RF5yQN0ootWQE9a-53" target="arhm7RF5yQN0ootWQE9a-63">
          <mxGeometry relative="1" as="geometry">
            <Array as="points">
              <mxPoint x="800" y="1604" />
              <mxPoint x="800" y="1762" />
            </Array>
          </mxGeometry>
        </mxCell>
        <mxCell id="arhm7RF5yQN0ootWQE9a-66" value="Is this AWS user&lt;br&gt;authorized?" style="edgeLabel;html=1;align=center;verticalAlign=middle;resizable=0;points=[];" vertex="1" connectable="0" parent="arhm7RF5yQN0ootWQE9a-65">
          <mxGeometry x="0.0785" y="-4" relative="1" as="geometry">
            <mxPoint y="21" as="offset" />
          </mxGeometry>
        </mxCell>
        <mxCell id="arhm7RF5yQN0ootWQE9a-67" value="MapUsers:&lt;br&gt;&amp;nbsp; username: eks-viewer&lt;br&gt;&amp;nbsp; groups:&lt;br&gt;&amp;nbsp; &amp;nbsp;- system:viewer" style="text;html=1;align=left;verticalAlign=middle;resizable=0;points=[];autosize=1;strokeColor=none;fillColor=none;" vertex="1" parent="1">
          <mxGeometry x="570" y="1734" width="150" height="70" as="geometry" />
        </mxCell>
        <mxCell id="arhm7RF5yQN0ootWQE9a-68" value="Authorization" style="verticalLabelPosition=bottom;shadow=0;dashed=0;align=center;html=1;verticalAlign=top;strokeWidth=1;shape=mxgraph.mockup.markup.line;strokeColor=#999999;" vertex="1" parent="1">
          <mxGeometry x="560" y="1830" width="270" height="20" as="geometry" />
        </mxCell>
        <mxCell id="arhm7RF5yQN0ootWQE9a-69" value="Node-level" style="verticalLabelPosition=bottom;shadow=0;dashed=0;align=center;html=1;verticalAlign=top;strokeWidth=1;shape=mxgraph.mockup.markup.line;strokeColor=#999999;" vertex="1" parent="1">
          <mxGeometry x="910" y="1791" width="250" height="20" as="geometry" />
        </mxCell>
        <mxCell id="arhm7RF5yQN0ootWQE9a-72" value="sa&lt;br&gt;(Default)" style="sketch=0;html=1;dashed=0;whitespace=wrap;fillColor=#2875E2;strokeColor=#ffffff;points=[[0.005,0.63,0],[0.1,0.2,0],[0.9,0.2,0],[0.5,0,0],[0.995,0.63,0],[0.72,0.99,0],[0.5,1,0],[0.28,0.99,0]];verticalLabelPosition=bottom;align=center;verticalAlign=top;shape=mxgraph.kubernetes.icon;prIcon=sa" vertex="1" parent="1">
          <mxGeometry x="1140" y="1426" width="50" height="48" as="geometry" />
        </mxCell>
        <mxCell id="arhm7RF5yQN0ootWQE9a-74" style="edgeStyle=orthogonalEdgeStyle;rounded=0;orthogonalLoop=1;jettySize=auto;html=1;entryX=0.72;entryY=0.99;entryDx=0;entryDy=0;entryPerimeter=0;" edge="1" parent="1">
          <mxGeometry relative="1" as="geometry">
            <mxPoint x="1154" y="1431" as="sourcePoint" />
            <mxPoint x="770" y="1368.52" as="targetPoint" />
            <Array as="points">
              <mxPoint x="1154" y="1406" />
              <mxPoint x="784" y="1406" />
              <mxPoint x="784" y="1369" />
            </Array>
          </mxGeometry>
        </mxCell>
        <mxCell id="arhm7RF5yQN0ootWQE9a-75" value="Authenticate&lt;br&gt;on behalf of Pod" style="edgeLabel;html=1;align=center;verticalAlign=middle;resizable=0;points=[];" vertex="1" connectable="0" parent="arhm7RF5yQN0ootWQE9a-74">
          <mxGeometry x="-0.1892" y="-1" relative="1" as="geometry">
            <mxPoint as="offset" />
          </mxGeometry>
        </mxCell>
        <mxCell id="arhm7RF5yQN0ootWQE9a-76" value="crb" style="sketch=0;html=1;dashed=0;whitespace=wrap;fillColor=#2875E2;strokeColor=#ffffff;points=[[0.005,0.63,0],[0.1,0.2,0],[0.9,0.2,0],[0.5,0,0],[0.995,0.63,0],[0.72,0.99,0],[0.5,1,0],[0.28,0.99,0]];verticalLabelPosition=bottom;align=center;verticalAlign=top;shape=mxgraph.kubernetes.icon;prIcon=rb" vertex="1" parent="1">
          <mxGeometry x="947" y="1422" width="50" height="48" as="geometry" />
        </mxCell>
        <mxCell id="arhm7RF5yQN0ootWQE9a-78" style="edgeStyle=orthogonalEdgeStyle;rounded=0;orthogonalLoop=1;jettySize=auto;html=1;" edge="1" parent="1" source="arhm7RF5yQN0ootWQE9a-77" target="arhm7RF5yQN0ootWQE9a-72">
          <mxGeometry relative="1" as="geometry" />
        </mxCell>
        <mxCell id="arhm7RF5yQN0ootWQE9a-79" value="injected" style="edgeLabel;html=1;align=center;verticalAlign=middle;resizable=0;points=[];" vertex="1" connectable="0" parent="arhm7RF5yQN0ootWQE9a-78">
          <mxGeometry x="-0.0476" y="2" relative="1" as="geometry">
            <mxPoint as="offset" />
          </mxGeometry>
        </mxCell>
        <mxCell id="arhm7RF5yQN0ootWQE9a-77" value="secret" style="sketch=0;html=1;dashed=0;whitespace=wrap;fillColor=#2875E2;strokeColor=#ffffff;points=[[0.005,0.63,0],[0.1,0.2,0],[0.9,0.2,0],[0.5,0,0],[0.995,0.63,0],[0.72,0.99,0],[0.5,1,0],[0.28,0.99,0]];verticalLabelPosition=bottom;align=center;verticalAlign=top;shape=mxgraph.kubernetes.icon;prIcon=secret" vertex="1" parent="1">
          <mxGeometry x="1000" y="1422" width="50" height="48" as="geometry" />
        </mxCell>
        <mxCell id="arhm7RF5yQN0ootWQE9a-80" style="edgeStyle=orthogonalEdgeStyle;rounded=0;orthogonalLoop=1;jettySize=auto;html=1;entryX=0.42;entryY=0.813;entryDx=0;entryDy=0;entryPerimeter=0;" edge="1" parent="1">
          <mxGeometry relative="1" as="geometry">
            <mxPoint x="962" y="1488" as="sourcePoint" />
            <mxPoint x="1148" y="1465.024" as="targetPoint" />
            <Array as="points">
              <mxPoint x="962" y="1490" />
              <mxPoint x="1057" y="1490" />
              <mxPoint x="1057" y="1480" />
              <mxPoint x="1148" y="1480" />
            </Array>
          </mxGeometry>
        </mxCell>
        <mxCell id="arhm7RF5yQN0ootWQE9a-81" value="Bound&lt;br&gt;to K8s &lt;br&gt;roles" style="edgeLabel;html=1;align=center;verticalAlign=middle;resizable=0;points=[];" vertex="1" connectable="0" parent="arhm7RF5yQN0ootWQE9a-80">
          <mxGeometry x="0.3147" y="2" relative="1" as="geometry">
            <mxPoint x="2" y="12" as="offset" />
          </mxGeometry>
        </mxCell>
        <mxCell id="arhm7RF5yQN0ootWQE9a-82" value="Authentication" style="verticalLabelPosition=bottom;shadow=0;dashed=0;align=center;html=1;verticalAlign=top;strokeWidth=1;shape=mxgraph.mockup.markup.line;strokeColor=#999999;" vertex="1" parent="1">
          <mxGeometry x="910" y="1831" width="660" height="20" as="geometry" />
        </mxCell>
        <mxCell id="arhm7RF5yQN0ootWQE9a-83" value="Pod-level" style="verticalLabelPosition=bottom;shadow=0;dashed=0;align=center;html=1;verticalAlign=top;strokeWidth=1;shape=mxgraph.mockup.markup.line;strokeColor=#999999;" vertex="1" parent="1">
          <mxGeometry x="1197.5" y="1790" width="362.5" height="20" as="geometry" />
        </mxCell>
        <mxCell id="arhm7RF5yQN0ootWQE9a-85" value="Amazon EC2" style="sketch=0;outlineConnect=0;fontColor=#232F3E;gradientColor=none;strokeColor=#ffffff;fillColor=#232F3E;dashed=0;verticalLabelPosition=middle;verticalAlign=bottom;align=center;html=1;whiteSpace=wrap;fontSize=10;fontStyle=1;spacing=3;shape=mxgraph.aws4.productIcon;prIcon=mxgraph.aws4.ec2;" vertex="1" parent="1">
          <mxGeometry x="918" y="1705.65" width="70" height="90" as="geometry" />
        </mxCell>
        <mxCell id="arhm7RF5yQN0ootWQE9a-88" value="IAM Role" style="sketch=0;outlineConnect=0;fontColor=#232F3E;gradientColor=none;fillColor=#DD344C;strokeColor=none;dashed=0;verticalLabelPosition=bottom;verticalAlign=top;align=center;html=1;fontSize=12;fontStyle=0;aspect=fixed;pointerEvents=1;shape=mxgraph.aws4.role;" vertex="1" parent="1">
          <mxGeometry x="1022.17" y="1742.25" width="41.67" height="23.51" as="geometry" />
        </mxCell>
        <mxCell id="arhm7RF5yQN0ootWQE9a-89" value="Permissions" style="sketch=0;outlineConnect=0;fontColor=#232F3E;gradientColor=none;fillColor=#DD344C;strokeColor=none;dashed=0;verticalLabelPosition=bottom;verticalAlign=top;align=center;html=1;fontSize=12;fontStyle=0;aspect=fixed;pointerEvents=1;shape=mxgraph.aws4.permissions;" vertex="1" parent="1">
          <mxGeometry x="1090" y="1725.82" width="34.99" height="44.01" as="geometry" />
        </mxCell>
        <mxCell id="arhm7RF5yQN0ootWQE9a-91" value="Instance Profile" style="text;html=1;align=center;verticalAlign=middle;resizable=0;points=[];autosize=1;strokeColor=none;fillColor=none;" vertex="1" parent="1">
          <mxGeometry x="988" y="1704" width="110" height="30" as="geometry" />
        </mxCell>
        <mxCell id="arhm7RF5yQN0ootWQE9a-95" value="" style="edgeStyle=orthogonalEdgeStyle;rounded=0;orthogonalLoop=1;jettySize=auto;html=1;entryX=0.597;entryY=0.042;entryDx=0;entryDy=0;entryPerimeter=0;" edge="1" parent="1" source="arhm7RF5yQN0ootWQE9a-93" target="arhm7RF5yQN0ootWQE9a-94">
          <mxGeometry relative="1" as="geometry" />
        </mxCell>
        <mxCell id="arhm7RF5yQN0ootWQE9a-93" value="Get IAM role credentials" style="rounded=1;whiteSpace=wrap;html=1;" vertex="1" parent="1">
          <mxGeometry x="965" y="1600" width="150" height="20" as="geometry" />
        </mxCell>
        <mxCell id="arhm7RF5yQN0ootWQE9a-96" value="" style="edgeStyle=orthogonalEdgeStyle;rounded=0;orthogonalLoop=1;jettySize=auto;html=1;" edge="1" parent="1" source="arhm7RF5yQN0ootWQE9a-94" target="arhm7RF5yQN0ootWQE9a-91">
          <mxGeometry relative="1" as="geometry">
            <Array as="points">
              <mxPoint x="1008" y="1690" />
              <mxPoint x="1043" y="1690" />
            </Array>
          </mxGeometry>
        </mxCell>
        <mxCell id="arhm7RF5yQN0ootWQE9a-94" value="curl &lt;br&gt;169.254.169.254/latest/meta-data/iam/security-credentials/" style="rounded=1;whiteSpace=wrap;html=1;" vertex="1" parent="1">
          <mxGeometry x="848" y="1640" width="320" height="36" as="geometry" />
        </mxCell>
      </root>
    </mxGraphModel>
  </diagram>
</mxfile>
